<svg fill="none" height="58" viewBox="0 0 87 58" width="87" xmlns="http://www.w3.org/2000/svg" xmlns:xlink="http://www.w3.org/1999/xlink"><mask id="a" height="58" maskUnits="userSpaceOnUse" width="87" x="0" y="0"><path d="m86.4536.962158h-85.907702v56.075842h85.907702z" fill="#fff"/></mask><mask id="b" height="58" maskUnits="userSpaceOnUse" width="87" x="0" y="0"><path d="m86.4536.962158h-85.907702v56.075842h85.907702z" fill="#fff"/></mask><mask id="c" height="34" maskUnits="userSpaceOnUse" width="53" x="22" y="10"><path d="m74.2044 10.8435h-51.7176v32.3534h51.7176z" fill="#fff"/></mask><g mask="url(#a)"><g mask="url(#b)"><g fill-opacity=".5"><path d="m79.8883 56.5611c-2.1644-2.6007-4.9215-4.7704-8.0931-6.3688-4.2043-1.7801-9.1056-1.4366-13.7511-1.1028-8.6161.7304-17.2772.9579-25.9271.6812-2.5546.1082-5.076-.5477-7.1579-1.8621-1.5176-1.4343-2.5215-3.234-2.8852-5.1723-1.0054-3.4824-1.7693-7.0159-2.2875-10.5808-.6224-3.4312-.6455-6.9267-.0683-10.3642.5949-3.4604 2.5106-6.6364 5.4285-8.9998 4.6454-3.50352 11.2717-3.80801 17.373-3.94268l26.3639-.58555c4.3013-.09564 9.1365 0 12.132 2.71503 1.6078 1.7123 2.7159 3.7478 3.2271 5.9276 2.4264 7.4443 2.5389 21.0797-1.9367 26.1896-1.419 1.2063-2.6105 2.6059-3.5293 4.1456-1.2044 3.0468 1.2705 6.2185 1.1183 9.3161" fill="#fff"/><path d="m79.8914 57.0373c-.078-.0001-.1551-.0152-.2259-.0441-.0709-.029-.1338-.0712-.1844-.1237-2.1217-2.5439-4.8166-4.6706-7.9145-6.2459-4.0918-1.7312-8.8607-1.3877-13.4753-1.0579-8.6432.7328-17.3316.9617-26.0088.6851-2.6769.1057-5.3155-.5932-7.4865-1.983-1.5968-1.4981-2.6575-3.3805-3.0485-5.4105-1.0098-3.5018-1.7774-7.0548-2.2984-10.6393-.6283-3.4794-.6499-7.0235-.064-10.5086.6166-3.5688 2.5963-6.8429 5.6094-9.277 4.6322-3.48599 11.0136-3.90368 17.7083-4.05592l26.3639-.58555c4.6322-.09954 9.4233.03318 12.5379 2.85947 1.6736 1.7659 2.8277 3.8706 3.3594 6.1267 2.3558 7.2217 2.7352 21.1792-2.0271 26.615-.3993.4568-.8493.8842-1.2838 1.3-.9258.7625-1.6646 1.6853-2.1705 2.711-.4532 1.7096-.3109 3.5005.4081 5.1372.4757 1.3067.7256 2.6695.7411 4.0422-.0045.0958-.0418.188-.1067.2647-.065.0766-.1547.1341-.2573.1647-.056.0171-.1171.0257-.1764.0254zm-16.2459-8.6895c2.8785-.0886 5.7428.395 8.3821 1.4151 2.8043 1.3486 5.266 3.1921 7.2329 5.4163-.1534-.8074-.3589-1.6063-.6154-2.3929-.7847-1.8194-.9202-3.8078-.3882-5.6974.5509-1.1516 1.3675-2.1887 2.3977-3.0449.4191-.3903.8514-.8119 1.222-1.2355 4.1381-4.7214 4.3918-17.9567 1.8441-25.764-.4805-2.1048-1.5413-4.072-3.0882-5.7266-2.8146-2.55106-7.3431-2.67207-11.7415-2.57253l-26.3639.58555c-6.494.14443-12.6835.54456-17.0356 3.82948-2.8241 2.2924-4.676 5.3714-5.2476 8.7246-.5641 3.3894-.5396 6.8351.0728 10.2178.5161 3.5457 1.2755 7.0602 2.2742 10.5242.3421 1.8441 1.2904 3.5581 2.7264 4.9284 1.9979 1.2357 4.4033 1.8488 6.838 1.7429 8.6294.274 17.2698.0458 25.8654-.6831 1.8132-.1308 3.7234-.2674 5.6403-.2674" fill="#000"/><path d="m6.88318 53.266c1.83083-3.0513 3.82562-6.0187 5.98442-8.9022.5147-.7659 1.1665-1.4528 1.9301-2.0338 1.0137-.6163 2.1655-1.0324 3.3771-1.2199 4.4402-.7829 8.9525-1.2024 13.4797-1.2531l23.2824-.89c3.2857.1426 6.55-.5394 9.4166-1.9674 1.5201-1.024 2.7753-2.3237 3.6815-3.8119 1.17-1.6964 2.0193-3.5502 2.5147-5.4885.477-2.5299.515-5.1093.1125-7.6492-.4964-4.3838-1.4007-9.0096-4.6918-12.31602-3.8161-3.83533-9.9527-5.03179-15.69-5.61344-10.1273-.93032-20.338-.89957-30.4579.09174-5.0734.45087-10.56145 1.27064-13.96723 4.61606-2.06146 2.2901-3.3669 5.04006-3.77194 7.94586-.88155 5.223-1.21458 10.507-.99483 15.7844-.120732 1.6106.16561 3.2249.83821 4.7253.89242 1.2557 1.90178 2.4433 3.01756 3.5504 3.19623 3.9661 2.34037 9.3687 1.93891 14.4435" fill="#fff"/><path d="m6.88049 53.7425c-.04993.0001-.09965-.0058-.14779-.0176-.11864-.0302-.22196-.0955-.29264-.185-.07068-.0896-.10443-.1979-.09558-.3069.0397-.4996.08382-1.0012.12794-1.5068.39484-4.5184.80071-9.1891-1.96759-12.6263-.34852-.4333-.7566-.8529-1.15144-1.2609-.74938-.7094-1.39149-1.502-1.91023-2.3578-.705244-1.5621-1.006712-3.2439-.882331-4.9225-.220449-5.3066.114053-10.62.999231-15.8722.4387-2.9892 1.78748-5.81673 3.90209-8.18005 3.44328-3.3825 8.91595-4.29205 14.31355-4.76439 10.1574-1.002895 20.4073-1.035613 30.5726-.09759 5.3271.54065 11.9644 1.68247 16.0319 5.77153 3.3727 3.3903 4.3101 8.0513 4.8241 12.5834.4048 2.589.3639 5.2174-.1213 7.7956-.5036 1.9903-1.3748 3.8935-2.5786 5.6329-.9406 1.5502-2.2501 2.9013-3.8381 3.9603-2.9525 1.4787-6.3165 2.1904-9.7056 2.0533l-23.2846.89c-4.4937.051-8.9726.4665-13.3805 1.2414-1.1347.1753-2.2143.5619-3.1676 1.134-.7176.5493-1.3299 1.1979-1.8131 1.9206-2.1441 2.8555-4.14918 5.8379-5.95574 8.8632-.04609.0763-.11479.14-.19873.1844s-.18216.0676-.27994.0674zm29.39911-51.83063c-5.177 0-10.6188.25764-16.4024.76901-5.1837.46063-10.42252 1.31943-13.62095 4.46186-2.01497 2.21377-3.27654 4.88916-3.63739 7.71356-.87313 5.1943-1.20319 10.4487-.986 15.6966-.11659 1.5361.14765 3.0763.77424 4.5126.48156.7797 1.07466 1.5014 1.76465 2.147.41028.4235.8338.8607 1.2132 1.3272 2.83888 3.5387 2.60066 8.0942 2.21905 12.5522 1.50216-2.3832 3.119-4.7273 4.8197-6.9934.5445-.812 1.2377-1.5382 2.0514-2.1489 1.0742-.6596 2.297-1.1057 3.5845-1.3078 4.4721-.7895 9.0169-1.2128 13.5768-1.2647l23.2846-.8901c3.1821.1325 6.3434-.5188 9.132-1.8815 1.461-.982 2.6649-2.2317 3.5294-3.6636 1.1414-1.6497 1.9679-3.4546 2.4462-5.3421.4621-2.4846.4978-5.0166.1059-7.5106-.4941-4.3741-1.3897-8.8613-4.5616-12.04862-3.8249-3.83923-10.2108-4.93225-15.3459-5.44948-4.6307-.46139-9.2874-.68817-13.9474-.67923z" fill="#000"/><path d="m14.7641 27.0494c-.1428.0023-.2807-.0456-.3835-.1333s-.1621-.2079-.1647-.3342.0516-.2484.1506-.3393c.0991-.091.235-.1434.3777-.1457l40.9686-1.4366c.0711-.0039.1423.0049.2094.0259.0671.0211.1287.0539.181.0966.0524.0427.0944.0943.1236.1518.0292.0574.045.1195.0463.1825.0054.126-.046.2487-.1427.3413-.0968.0926-.2311.1474-.3735.1525l-40.9708 1.4404z" fill="#000"/><path d="m13.9981 16.5523c-.1428.0026-.2808-.0451-.3838-.1326s-.1625-.2076-.1655-.3339c-.0029-.1263.051-.2485.1499-.3396.0989-.0912.2346-.1438.3773-.1464l41.7341-1.5263c.0726-.0058.1458.0015.2151.0214.0693.02.1333.0522.1882.0948.0548.0425.0993.0944.1307.1526.0315.0582.0492.1215.0522.1859.003.0645-.0088.1288-.0348.1891-.0259.0603-.0654.1153-.1161.1616-.0507.0464-.1116.0832-.1788.1081s-.1395.0375-.2124.037l-41.734 1.5263h-.0221" fill="#000"/><path d="m26.0055 45.2053c-.0354-.0004-.0699-.0099-.0993-.0273-.0196-.0116-.0365-.0265-.0496-.0439s-.0221-.0369-.0266-.0574c-.0046-.0206-.0044-.0416.0003-.0621.0048-.0205.0141-.0399.0274-.0572l2.6249-3.484c.0263-.0352.0674-.0597.1141-.0681.0468-.0084.0954-.0001.1352.0232.0397.0233.0674.0596.0769.101.0096.0414.0001.0844-.0262.1196l-2.6271 3.4859c-.0166.0217-.039.0394-.0651.0517-.0262.0122-.0553.0186-.0849.0186z" fill="#000"/><path d="m29.2122 46.9887c-.0328-.0001-.0648-.0082-.0927-.0235-.0202-.0108-.0378-.025-.0518-.0419-.0139-.0169-.024-.036-.0295-.0564-.0056-.0203-.0065-.0414-.0027-.062.0037-.0207.012-.0405.0245-.0583 1.3764-1.9947 2.8675-3.968 4.4116-5.8554.0293-.0342.0727-.0567.1206-.0625.048-.0059.0967.0054.1353.0313.0386.0258.064.0642.0706.1067.0067.0425-.0061.0855-.0353.1197-1.5441 1.8893-3.022 3.8529-4.394 5.8418-.0159.0231-.0382.0423-.0649.0556-.0266.0133-.0567.0204-.0873.0205" fill="#000"/><path d="m34.6073 47.5166c-.0268.0002-.0532-.0052-.0772-.0156-.0427-.0182-.0755-.0506-.0913-.0901-.0157-.0395-.013-.083.0074-.1207 1.2161-2.2238 2.6286-4.3592 4.2242-6.3864.0134-.017.0306-.0316.0504-.0428.0198-.0111.0419-.0188.0651-.0224.0231-.0036.0468-.0032.0698.0013.0229.0045.0447.0129.0639.0249.0193.0119.0357.027.0484.0446.0126.0175.0212.0371.0253.0576.0041.0204.0036.0414-.0015.0617-.005.0204-.0146.0396-.0281.0566-1.5828 2.0106-2.9841 4.1283-4.191 6.3337-.0148.0267-.0376.0493-.0661.0651-.0284.0159-.0613.0244-.0949.0247" fill="#000"/><path d="m39.7966 47.6843c-.0313.0002-.0622-.0069-.0895-.0206-.0272-.0137-.05-.0335-.0658-.0575-.0159-.0239-.0244-.0511-.0246-.0789-.0002-.0277.0078-.055.0233-.0792l3.9859-6.2653c.0234-.0368.0624-.0638.1083-.0751.0459-.0114.095-.0061.1366.0146.0415.0207.072.0551.0849.0958.0128.0406.0069.0841-.0165.1208l-3.986 6.2654c-.0154.0248-.038.0455-.0656.0599-.0275.0144-.059.0201-.091.0201z" fill="#000"/><path d="m45.3299 47.7623c-.0267-.0002-.0531-.0055-.0772-.0156-.0427-.0181-.0755-.0505-.0912-.0901-.0157-.0395-.0131-.0829.0074-.1207 1.2397-2.2934 2.6249-4.5556 4.1183-6.7279.0245-.036.0642-.0619.1104-.0719.0461-.0101.0948-.0036.1355.0182.0407.0217.0699.0569.0813.0977.0113.0408.0039.0839-.0206.1199-1.4868 2.1646-2.8676 4.417-4.1007 6.7006-.0145.0269-.0373.0496-.0658.0655s-.0637.0243-.0974.0243z" fill="#000"/><path d="m51.1933 47.5303c-.0235.0002-.0467-.0038-.0684-.0117-.0218-.0079-.0415-.0196-.0582-.0343s-.0299-.0321-.0389-.0513-.0136-.0399-.0136-.0607.0046-.0414.0136-.0606c1.0632-2.2719 2.2544-4.5263 3.5448-6.7026.0222-.0372.0603-.0652.1058-.0776s.0947-.0084.1368.0113.0737.0533.0878.0936c.014.0403.0095.0838-.0128.1211-1.2838 2.1665-2.4705 4.4111-3.5293 6.6752-.0138.0288-.0368.0534-.0662.0707-.0294.0174-.0661.0267-.1014.0269z" fill="#000"/><path d="m56.8903 46.8327c-.021-.0001-.0419-.0034-.0617-.0098-.0424-.0145-.077-.0427-.0967-.079-.0196-.0363-.0229-.0778-.0092-.1161.8713-2.067 1.8573-4.1243 2.9337-6.1151.0102-.0188.0244-.0357.0419-.0497s.038-.0248.0602-.0317c.0222-.007.0458-.01.0693-.009.0236.0011.0467.0063.068.0153.0212.0089.0403.0215.0561.037s.028.0336.0359.0533c.0079.0196.0113.0405.0101.0613-.0012.0209-.0071.0413-.0172.0601-1.072 1.9811-2.0536 4.0286-2.9205 6.0878-.0127.0303-.0355.0565-.0655.075s-.0656.0284-.1022.0284" fill="#000"/><path d="m62.0507 46.829c-.0275 0-.0546-.0053-.0794-.0156-.0425-.0189-.0748-.0517-.0901-.0915-.0153-.0399-.0123-.0834.0084-.1212l5.7837-10.4227c.0104-.0188.0249-.0355.0426-.0492.0178-.0138.0384-.0243.0607-.031s.0459-.0095.0695-.0081c.0235.0014.0465.0068.0676.016.0212.0093.0401.0221.0556.0378.0156.0157.0274.0339.035.0537.0076.0197.0107.0406.0092.0614-.0016.0208-.0077.0412-.0182.0599l-5.7814 10.4227c-.0151.0264-.0381.0485-.0665.064s-.0633.0238-.0967.0238z" fill="#000"/><path d="m73.238 24.9643c-.0227.0001-.0452-.0039-.0661-.0117-.0219-.0075-.0419-.0188-.0588-.0332-.017-.0144-.0306-.0316-.04-.0506-.0094-.0191-.0145-.0396-.015-.0603-.0004-.0208.0037-.0415.0123-.0608 1.7757-4.0325 3.7499-8.0493 5.8895-11.9413.0208-.0378.0577-.0667.1026-.0804.0448-.0137.0941-.0111.1368.0072.0427.0184.0754.051.0909.0908.0155.0397.0125.0832-.0082.121-2.1264 3.8841-4.1051 7.8951-5.8785 11.9178-.013.03-.036.0558-.066.0739-.0299.0181-.0632.0278-.0995.0276z" fill="#000"/><path d="m71.4866 15.1277c-.0313.0003-.062-.0066-.0893-.0201-.0273-.0134-.0501-.033-.0662-.0567-.016-.0237-.0248-.0507-.0254-.0783-.0006-.0277.007-.0549.0221-.0792l2.3447-3.8841c.0107-.0189.0255-.0357.0436-.0495s.0391-.0242.0618-.0306c.0228-.0065.0467-.0088.0705-.0069.0238.0018.0469.0079.068.0178.021.0099.0397.0235.0547.0399.0151.0163.0263.0352.0329.0555.0067.0203.0087.0415.006.0625-.0028.021-.0103.0413-.022.0597l-2.3448 3.886c-.0153.0255-.0382.0468-.0662.0616s-.0578.0225-.0904.0224z" fill="#000"/><path d="m67.2273 46.8795c-.0227-.0001-.0452-.004-.0662-.0117-.0219-.0076-.0418-.0189-.0588-.0333-.0169-.0143-.0305-.0315-.0399-.0506-.0094-.019-.0145-.0395-.015-.0603s.0037-.0414.0123-.0608c4.275-9.6219 9.11-19.0417 14.4856-28.2213.0219-.0373.0597-.0653.105-.078.0224-.0062.046-.0085.0694-.0067.0235.0018.0462.0077.0671.0173.0208.0096.0394.0228.0545.0387.0151.016.0265.0344.0336.0542.007.0199.0096.0408.0076.0615-.0021.0207-.0087.0409-.0196.0593-5.3701 9.1701-10.1999 18.5801-14.4702 28.1921-.0133.0297-.0364.055-.0664.0728-.0299.0177-.063.0271-.099.0268z" fill="#000"/><path d="m71.9702 47.2665c-.0305.0001-.0606-.0066-.0873-.0197-.0267-.013-.0491-.0318-.0653-.0547-.0161-.0229-.0254-.0491-.0269-.076-.0014-.027.0049-.0538.0184-.078l10.4975-18.9931c.0208-.0378.0577-.0668.1026-.0805.0448-.0137.0941-.0111.1368.0073.0427.0183.0754.051.0909.0907s.0125.0832-.0082.121l-10.4975 18.9952c-.0151.0263-.0381.0485-.0665.064s-.0611.0237-.0945.0238z" fill="#000"/><path d="m78.2299 43.4089c-.0305.0001-.0605-.0067-.0872-.0197s-.0492-.0319-.0653-.0548c-.0162-.0228-.0254-.049-.0269-.076-.0015-.0269.0049-.0537.0184-.0779l4.4558-7.9107c.0104-.0188.0249-.0355.0426-.0492.0177-.0138.0383-.0243.0607-.031.0223-.0067.0459-.0095.0694-.0081.0236.0014.0465.0068.0677.016.0211.0093.04.0221.0556.0378.0155.0157.0274.0339.035.0537.0076.0197.0107.0406.0091.0614-.0015.0208-.0077.0412-.0181.0599l-4.4557 7.9107c-.0149.0265-.0379.0488-.0663.0643-.0285.0156-.0613.0237-.0948.0236z" fill="#000"/></g><g mask="url(#c)" opacity=".129"><path d="m73.5776 17.2706c-.1718-.6227-.4111-1.2293-.7147-1.8113.0353.0429.1257.2928.1059.2108-.2647-.6949-.514-1.3975-.8404-2.0728.2581.5445-.2691-.5856-.4103-.8042-.2921-.5354-.6478-1.0419-1.061-1.5107-.078-.1154-.1846-.2137-.3117-.2874s-.2715-.121-.4222-.1383c-.1507-.0172-.3039-.0041-.448.0385-.1442.0427-.2755.1136-.3842.2076-.578.5368-.1853 1.0813.2206 1.5615.2567.319.4492.675.569 1.052.3353.9759.5603 1.6708.7191 2.2114-.0538.0472-.1005.1004-.1389.1581-.2328 1.1161-.3956 2.2427-.4875 3.3747-.0309.1503-.0309.1835-.0243.1581-.1963 1.1828-.483 2.4339-.7125 3.9271-.3648 1.7683-.918 3.5021-1.6521 5.1782-.9038 1.8965-2.3768 3.538-4.2594 4.7468-2.1967 1.2472-4.5701 2.2316-7.0587 2.9277-2.8924.7279-5.8656 1.1755-8.8673 1.3351-3.6462.3181-7.2947.5855-10.9343.9759-2.5322.1952-4.5704.2479-6.4917.5465-.761.1054-1.5132.2479-2.2654.3904l-.0639.0214-1.0743.0371c-.2203-.0037-.4381.0413-.6338.1309s-.363.2211-.4867.3824l-.7985-.0741c-.425-.1035-.8752-.0919-1.2926.0331-.3013.1159-.5486.3197-.7006.5773-.152.2577-.1996.5537-.1349.8386.0648.285.238.5417.4908.7273s.5699.2889.8983.2927c4.9529.507 9.9417.6845 14.9246.5309 2.5587-.08 5.0888-.4235 7.6299-.6695 4.7469-.3311 9.4632-.9441 14.1172-1.8347 2.0631-.2969 4.0391-.9533 5.8134-1.9309 1.7743-.9777 3.3117-2.2572 4.5231-3.7645 3.0865-5.4647 4.022-11.685 2.658-17.6737zm-4.9587 16.1103c-.4152.7359-.9953 1.3894-1.7051 1.9206-.0458-.1508-.1289-.2907-.2433-.4095-.1145-.1188-.2574-.2136-.4184-.2775 1.6903-1.3513 3.0362-3.0053 3.9484-4.8523-.0507.1679-.1015.3338-.1566.5036-.2907 1.0944-.769 2.143-1.4184 3.1093" fill="#000" fill-opacity=".5"/></g></g></g></svg>