<svg width="87" height="58" viewBox="0 0 87 58" fill="none" xmlns="http://www.w3.org/2000/svg">
<mask id="mask0_320_73" style="mask-type:luminance" maskUnits="userSpaceOnUse" x="0" y="0" width="87" height="58">
<path d="M86.4536 0.962158H0.545898V57.038H86.4536V0.962158Z" fill="white"/>
</mask>
<g mask="url(#mask0_320_73)">
<mask id="mask1_320_73" style="mask-type:luminance" maskUnits="userSpaceOnUse" x="0" y="0" width="87" height="58">
<path d="M86.4536 0.962158H0.545898V57.038H86.4536V0.962158Z" fill="white"/>
</mask>
<g mask="url(#mask1_320_73)">
<path d="M79.8883 56.5611C77.7239 53.9604 74.9668 51.7907 71.7952 50.1923C67.5909 48.4122 62.6896 48.7557 58.0441 49.0895C49.428 49.8199 40.7669 50.0474 32.117 49.7707C29.5624 49.8789 27.041 49.223 24.9591 47.9086C23.4415 46.4743 22.4376 44.6746 22.0739 42.7363C21.0685 39.2539 20.3046 35.7204 19.7864 32.1555C19.164 28.7243 19.1409 25.2288 19.7181 21.7913C20.313 18.3309 22.2287 15.1549 25.1466 12.7915C29.792 9.28798 36.4183 8.98349 42.5196 8.84882L68.8835 8.26327C73.1848 8.16763 78.02 8.26327 81.0155 10.9783C82.6233 12.6906 83.7314 14.7261 84.2426 16.9059C86.669 24.3502 86.7815 37.9856 82.3059 43.0955C80.8869 44.3018 79.6954 45.7014 78.7766 47.2411C77.5722 50.2879 80.0471 53.4596 79.8949 56.5572" fill="white" fill-opacity="0.5"/>
<path d="M79.8914 57.0373C79.8134 57.0372 79.7363 57.0221 79.6655 56.9932C79.5946 56.9642 79.5317 56.922 79.4811 56.8695C77.3594 54.3256 74.6645 52.1989 71.5666 50.6236C67.4748 48.8924 62.7059 49.2359 58.0913 49.5657C49.4481 50.2985 40.7597 50.5274 32.0825 50.2508C29.4056 50.3565 26.767 49.6576 24.596 48.2678C22.9992 46.7697 21.9385 44.8873 21.5475 42.8573C20.5377 39.3555 19.7701 35.8025 19.2491 32.218C18.6208 28.7386 18.5992 25.1945 19.1851 21.7094C19.8017 18.1406 21.7814 14.8665 24.7945 12.4324C29.4267 8.94641 35.8081 8.52872 42.5028 8.37648L68.8667 7.79093C73.4989 7.69139 78.29 7.82411 81.4046 10.6504C83.0782 12.4163 84.2323 14.521 84.764 16.7771C87.1198 23.9988 87.4992 37.9563 82.7369 43.3921C82.3376 43.8489 81.8876 44.2763 81.4531 44.6921C80.5273 45.4546 79.7885 46.3774 79.2826 47.4031C78.8294 49.1127 78.9717 50.9036 79.6907 52.5403C80.1664 53.847 80.4163 55.2098 80.4318 56.5825C80.4273 56.6783 80.39 56.7705 80.3251 56.8472C80.2601 56.9238 80.1704 56.9813 80.0678 57.0119C80.0118 57.029 79.9507 57.0376 79.8914 57.0373ZM63.6455 48.3478C66.524 48.2592 69.3883 48.7428 72.0276 49.7629C74.8319 51.1115 77.2936 52.955 79.2605 55.1792C79.1071 54.3718 78.9016 53.5729 78.6451 52.7863C77.8604 50.9669 77.7249 48.9785 78.2569 47.0889C78.8078 45.9373 79.6244 44.9002 80.6546 44.044C81.0737 43.6537 81.506 43.2321 81.8766 42.8085C86.0147 38.0871 86.2684 24.8518 83.7207 17.0445C83.2402 14.9397 82.1794 12.9725 80.6325 11.3179C77.8179 8.76684 73.2894 8.64583 68.891 8.74537L42.5271 9.33092C36.0331 9.47535 29.8436 9.87548 25.4915 13.1604C22.6674 15.4528 20.8155 18.5318 20.2439 21.885C19.6798 25.2744 19.7043 28.7201 20.3167 32.1028C20.8328 35.6485 21.5922 39.163 22.5909 42.627C22.933 44.4711 23.8813 46.1851 25.3173 47.5554C27.3152 48.7911 29.7206 49.4042 32.1553 49.2983C40.7847 49.5723 49.4251 49.3441 58.0207 48.6152C59.8339 48.4844 61.7441 48.3478 63.661 48.3478" fill="black" fill-opacity="0.5"/>
<path d="M6.88318 53.266C8.71401 50.2147 10.7088 47.2473 12.8676 44.3638C13.3823 43.5979 14.0341 42.911 14.7977 42.33C15.8114 41.7137 16.9632 41.2976 18.1748 41.1101C22.615 40.3272 27.1273 39.9077 31.6545 39.857L54.9369 38.967C58.2226 39.1096 61.4869 38.4276 64.3535 36.9996C65.8736 35.9756 67.1288 34.6759 68.035 33.1877C69.205 31.4913 70.0543 29.6375 70.5497 27.6992C71.0267 25.1693 71.0647 22.5899 70.6622 20.05C70.1658 15.6662 69.2615 11.0404 65.9704 7.73398C62.1543 3.89865 56.0177 2.70219 50.2804 2.12054C40.1531 1.19022 29.9424 1.22097 19.8225 2.21228C14.7491 2.66315 9.26105 3.48292 5.85527 6.82834C3.79381 9.11844 2.48837 11.8684 2.08333 14.7742C1.20178 19.9972 0.86875 25.2812 1.0885 30.5586C0.967768 32.1692 1.25411 33.7835 1.92671 35.2839C2.81913 36.5396 3.82849 37.7272 4.94427 38.8343C8.1405 42.8004 7.28464 48.203 6.88318 53.2778" fill="white" fill-opacity="0.5"/>
<path d="M6.88049 53.7425C6.83056 53.7426 6.78084 53.7367 6.7327 53.7249C6.61406 53.6947 6.51074 53.6294 6.44006 53.5399C6.36938 53.4503 6.33563 53.342 6.34448 53.233C6.38418 52.7334 6.4283 52.2318 6.47242 51.7262C6.86726 47.2078 7.27313 42.5371 4.50483 39.0999C4.15631 38.6666 3.74823 38.247 3.35339 37.839C2.60401 37.1296 1.9619 36.337 1.44316 35.4812C0.737916 33.9191 0.436448 32.2373 0.560829 30.5587C0.34038 25.2521 0.674882 19.9387 1.56006 14.6865C1.99876 11.6973 3.34754 8.86977 5.46215 6.50645C8.90543 3.12395 14.3781 2.2144 19.7757 1.74206C29.9331 0.739165 40.183 0.706447 50.3483 1.64447C55.6754 2.18512 62.3127 3.32694 66.3802 7.416C69.7529 10.8063 70.6903 15.4673 71.2043 19.9994C71.6091 22.5884 71.5682 25.2168 71.083 27.795C70.5794 29.7853 69.7082 31.6885 68.5044 33.4279C67.5638 34.9781 66.2543 36.3292 64.6663 37.3882C61.7138 38.8669 58.3498 39.5786 54.9607 39.4415L31.6761 40.3315C27.1824 40.3825 22.7035 40.798 18.2956 41.5729C17.1609 41.7482 16.0813 42.1348 15.128 42.7069C14.4104 43.2562 13.7981 43.9048 13.3149 44.6275C11.1708 47.483 9.16572 50.4654 7.35916 53.4907C7.31307 53.567 7.24437 53.6307 7.16043 53.6751C7.07649 53.7195 6.97827 53.7427 6.88049 53.7425ZM36.2796 1.91187C31.1026 1.91187 25.6608 2.16951 19.8772 2.68088C14.6935 3.14151 9.45468 4.00031 6.25625 7.14274C4.24128 9.35651 2.97971 12.0319 2.61886 14.8563C1.74573 20.0506 1.41567 25.305 1.63286 30.5529C1.51627 32.089 1.78051 33.6292 2.4071 35.0655C2.88866 35.8452 3.48176 36.5669 4.17175 37.2125C4.58203 37.636 5.00555 38.0732 5.38495 38.5397C8.22383 42.0784 7.98561 46.6339 7.604 51.0919C9.10616 48.7087 10.723 46.3646 12.4237 44.0985C12.9682 43.2865 13.6614 42.5603 14.4751 41.9496C15.5493 41.29 16.7721 40.8439 18.0596 40.6418C22.5317 39.8523 27.0765 39.429 31.6364 39.3771L54.921 38.487C58.1031 38.6195 61.2644 37.9682 64.053 36.6055C65.514 35.6235 66.7179 34.3738 67.5824 32.9419C68.7238 31.2922 69.5503 29.4873 70.0286 27.5998C70.4907 25.1152 70.5264 22.5832 70.1345 20.0892C69.6404 15.7151 68.7448 11.2279 65.5729 8.04058C61.748 4.20135 55.3621 3.10833 50.227 2.5911C45.5963 2.12971 40.9396 1.90293 36.2796 1.91187Z" fill="black" fill-opacity="0.5"/>
<path d="M14.7641 27.0494C14.6213 27.0517 14.4834 27.0038 14.3806 26.9161C14.2778 26.8284 14.2185 26.7082 14.2159 26.5819C14.2133 26.4556 14.2675 26.3335 14.3665 26.2426C14.4656 26.1516 14.6015 26.0992 14.7442 26.0969L55.7128 24.6603C55.7839 24.6564 55.8551 24.6652 55.9222 24.6862C55.9893 24.7073 56.0509 24.7401 56.1032 24.7828C56.1556 24.8255 56.1976 24.8771 56.2268 24.9346C56.256 24.992 56.2718 25.0541 56.2731 25.1171C56.2785 25.2431 56.2271 25.3658 56.1304 25.4584C56.0336 25.551 55.8993 25.6058 55.7569 25.6109L14.7861 27.0513L14.7641 27.0494Z" fill="black" fill-opacity="0.5"/>
<path d="M13.9981 16.5523C13.8553 16.5549 13.7173 16.5072 13.6143 16.4197C13.5113 16.3322 13.4518 16.2121 13.4488 16.0858C13.4459 15.9595 13.4998 15.8373 13.5987 15.7462C13.6976 15.655 13.8333 15.6024 13.976 15.5998L55.7101 14.0735C55.7827 14.0677 55.8559 14.075 55.9252 14.0949C55.9945 14.1149 56.0585 14.1471 56.1134 14.1897C56.1682 14.2322 56.2127 14.2841 56.2441 14.3423C56.2756 14.4005 56.2933 14.4638 56.2963 14.5282C56.2993 14.5927 56.2875 14.657 56.2615 14.7173C56.2356 14.7776 56.1961 14.8326 56.1454 14.8789C56.0947 14.9253 56.0338 14.9621 55.9666 14.987C55.8994 15.0119 55.8271 15.0245 55.7542 15.024L14.0202 16.5503H13.9981" fill="black" fill-opacity="0.5"/>
<path d="M26.0055 45.2053C25.9701 45.2049 25.9356 45.1954 25.9062 45.178C25.8866 45.1664 25.8697 45.1515 25.8566 45.1341C25.8435 45.1167 25.8345 45.0972 25.83 45.0767C25.8254 45.0561 25.8256 45.0351 25.8303 45.0146C25.8351 44.9941 25.8444 44.9747 25.8577 44.9574L28.4826 41.4734C28.5089 41.4382 28.55 41.4137 28.5967 41.4053C28.6435 41.3969 28.6921 41.4052 28.7319 41.4285C28.7716 41.4518 28.7993 41.4881 28.8088 41.5295C28.8184 41.5709 28.8089 41.6139 28.7826 41.6491L26.1555 45.135C26.1389 45.1567 26.1165 45.1744 26.0904 45.1867C26.0642 45.1989 26.0351 45.2053 26.0055 45.2053Z" fill="black" fill-opacity="0.5"/>
<path d="M29.2122 46.9887C29.1794 46.9886 29.1474 46.9805 29.1195 46.9652C29.0993 46.9544 29.0817 46.9402 29.0677 46.9233C29.0538 46.9064 29.0437 46.8873 29.0382 46.8669C29.0326 46.8466 29.0317 46.8255 29.0355 46.8049C29.0392 46.7842 29.0475 46.7644 29.06 46.7466C30.4364 44.7519 31.9275 42.7786 33.4716 40.8912C33.5009 40.857 33.5443 40.8345 33.5922 40.8287C33.6402 40.8228 33.6889 40.8341 33.7275 40.86C33.7661 40.8858 33.7915 40.9242 33.7981 40.9667C33.8048 41.0092 33.792 41.0522 33.7628 41.0864C32.2187 42.9757 30.7408 44.9393 29.3688 46.9282C29.3529 46.9513 29.3306 46.9705 29.3039 46.9838C29.2773 46.9971 29.2472 47.0042 29.2166 47.0043" fill="black" fill-opacity="0.5"/>
<path d="M34.6073 47.5166C34.5805 47.5168 34.5541 47.5114 34.5301 47.501C34.4874 47.4828 34.4546 47.4504 34.4388 47.4109C34.4231 47.3714 34.4258 47.3279 34.4462 47.2902C35.6623 45.0664 37.0748 42.931 38.6704 40.9038C38.6838 40.8868 38.701 40.8722 38.7208 40.861C38.7406 40.8499 38.7627 40.8422 38.7859 40.8386C38.809 40.835 38.8327 40.8354 38.8557 40.8399C38.8786 40.8444 38.9004 40.8528 38.9196 40.8648C38.9389 40.8767 38.9553 40.8918 38.968 40.9094C38.9806 40.9269 38.9892 40.9465 38.9933 40.967C38.9974 40.9874 38.9969 41.0084 38.9918 41.0287C38.9868 41.0491 38.9772 41.0683 38.9637 41.0853C37.3809 43.0959 35.9796 45.2136 34.7727 47.419C34.7579 47.4457 34.7351 47.4683 34.7066 47.4841C34.6782 47.5 34.6453 47.5085 34.6117 47.5088" fill="black" fill-opacity="0.5"/>
<path d="M39.7966 47.6843C39.7653 47.6845 39.7344 47.6774 39.7071 47.6637C39.6799 47.65 39.6571 47.6302 39.6413 47.6062C39.6254 47.5823 39.6169 47.5551 39.6167 47.5273C39.6165 47.4996 39.6245 47.4723 39.64 47.4481L43.6259 41.1828C43.6493 41.146 43.6883 41.119 43.7342 41.1077C43.7801 41.0963 43.8292 41.1016 43.8708 41.1223C43.9123 41.143 43.9428 41.1774 43.9557 41.2181C43.9685 41.2587 43.9626 41.3022 43.9392 41.3389L39.9532 47.6043C39.9378 47.6291 39.9152 47.6498 39.8876 47.6642C39.8601 47.6786 39.8286 47.6843 39.7966 47.6843Z" fill="black" fill-opacity="0.5"/>
<path d="M45.3299 47.7623C45.3032 47.7621 45.2768 47.7568 45.2527 47.7467C45.21 47.7286 45.1772 47.6962 45.1615 47.6566C45.1458 47.6171 45.1484 47.5737 45.1689 47.5359C46.4086 45.2425 47.7938 42.9803 49.2872 40.808C49.3117 40.772 49.3514 40.7461 49.3976 40.7361C49.4437 40.726 49.4924 40.7325 49.5331 40.7543C49.5738 40.776 49.603 40.8112 49.6144 40.852C49.6257 40.8928 49.6183 40.9359 49.5938 40.9719C48.107 43.1365 46.7262 45.3889 45.4931 47.6725C45.4786 47.6994 45.4558 47.7221 45.4273 47.738C45.3988 47.7539 45.3636 47.7623 45.3299 47.7623Z" fill="black" fill-opacity="0.5"/>
<path d="M51.1933 47.5303C51.1698 47.5305 51.1466 47.5265 51.1249 47.5186C51.1031 47.5107 51.0834 47.499 51.0667 47.4843C51.05 47.4696 51.0368 47.4522 51.0278 47.433C51.0188 47.4138 51.0142 47.3931 51.0142 47.3723C51.0142 47.3515 51.0188 47.3309 51.0278 47.3117C52.091 45.0398 53.2822 42.7854 54.5726 40.6091C54.5948 40.5719 54.6329 40.5439 54.6784 40.5315C54.7239 40.5191 54.7731 40.5231 54.8152 40.5428C54.8573 40.5625 54.8889 40.5961 54.903 40.6364C54.917 40.6767 54.9125 40.7202 54.8902 40.7575C53.6064 42.924 52.4197 45.1686 51.3609 47.4327C51.3471 47.4615 51.3241 47.4861 51.2947 47.5034C51.2653 47.5208 51.2286 47.5301 51.1933 47.5303Z" fill="black" fill-opacity="0.5"/>
<path d="M56.8903 46.8327C56.8693 46.8326 56.8484 46.8293 56.8286 46.8229C56.7862 46.8084 56.7516 46.7802 56.7319 46.7439C56.7123 46.7076 56.709 46.6661 56.7227 46.6278C57.594 44.5608 58.58 42.5035 59.6564 40.5127C59.6666 40.4939 59.6808 40.477 59.6983 40.463C59.7158 40.449 59.7363 40.4382 59.7585 40.4313C59.7807 40.4243 59.8043 40.4213 59.8278 40.4223C59.8514 40.4234 59.8745 40.4286 59.8958 40.4376C59.917 40.4465 59.9361 40.4591 59.9519 40.4746C59.9677 40.4901 59.9799 40.5082 59.9878 40.5279C59.9957 40.5475 59.9991 40.5684 59.9979 40.5892C59.9967 40.6101 59.9908 40.6305 59.9807 40.6493C58.9087 42.6304 57.9271 44.6779 57.0602 46.7371C57.0475 46.7674 57.0247 46.7936 56.9947 46.8121C56.9647 46.8306 56.9291 46.8405 56.8925 46.8405" fill="black" fill-opacity="0.5"/>
<path d="M62.0507 46.829C62.0232 46.829 61.9961 46.8237 61.9713 46.8134C61.9288 46.7945 61.8965 46.7617 61.8812 46.7219C61.8659 46.682 61.8689 46.6385 61.8896 46.6007L67.6733 36.178C67.6837 36.1592 67.6982 36.1425 67.7159 36.1288C67.7337 36.115 67.7543 36.1045 67.7766 36.0978C67.7989 36.0911 67.8225 36.0883 67.8461 36.0897C67.8696 36.0911 67.8926 36.0965 67.9137 36.1057C67.9349 36.115 67.9538 36.1278 67.9693 36.1435C67.9849 36.1592 67.9967 36.1774 68.0043 36.1972C68.0119 36.2169 68.015 36.2378 68.0135 36.2586C68.0119 36.2794 68.0058 36.2998 67.9953 36.3185L62.2139 46.7412C62.1988 46.7676 62.1758 46.7897 62.1474 46.8052C62.119 46.8207 62.0841 46.829 62.0507 46.829Z" fill="black" fill-opacity="0.5"/>
<path d="M73.238 24.9643C73.2153 24.9644 73.1928 24.9604 73.1719 24.9526C73.15 24.9451 73.13 24.9338 73.1131 24.9194C73.0961 24.905 73.0825 24.8878 73.0731 24.8688C73.0637 24.8497 73.0586 24.8292 73.0581 24.8085C73.0577 24.7877 73.0618 24.767 73.0704 24.7477C74.8461 20.7152 76.8203 16.6984 78.9599 12.8064C78.9807 12.7686 79.0176 12.7397 79.0625 12.726C79.1073 12.7123 79.1566 12.7149 79.1993 12.7332C79.242 12.7516 79.2747 12.7842 79.2902 12.824C79.3057 12.8637 79.3027 12.9072 79.282 12.945C77.1556 16.8291 75.1769 20.8401 73.4035 24.8628C73.3905 24.8928 73.3675 24.9186 73.3375 24.9367C73.3076 24.9548 73.2743 24.9645 73.238 24.9643Z" fill="black" fill-opacity="0.5"/>
<path d="M71.4866 15.1277C71.4553 15.128 71.4246 15.1211 71.3973 15.1076C71.37 15.0942 71.3472 15.0746 71.3311 15.0509C71.3151 15.0272 71.3063 15.0002 71.3057 14.9726C71.3051 14.9449 71.3127 14.9177 71.3278 14.8934L73.6725 11.0093C73.6832 10.9904 73.698 10.9736 73.7161 10.9598C73.7342 10.946 73.7552 10.9356 73.7779 10.9292C73.8007 10.9227 73.8246 10.9204 73.8484 10.9223C73.8722 10.9241 73.8953 10.9302 73.9164 10.9401C73.9374 10.95 73.9561 10.9636 73.9711 10.98C73.9862 10.9963 73.9974 11.0152 74.004 11.0355C74.0107 11.0558 74.0127 11.077 74.01 11.098C74.0072 11.119 73.9997 11.1393 73.988 11.1577L71.6432 15.0437C71.6279 15.0692 71.605 15.0905 71.577 15.1053C71.549 15.1201 71.5192 15.1278 71.4866 15.1277Z" fill="black" fill-opacity="0.5"/>
<path d="M67.2273 46.8795C67.2046 46.8794 67.1821 46.8755 67.1611 46.8678C67.1392 46.8602 67.1193 46.8489 67.1023 46.8345C67.0854 46.8202 67.0718 46.803 67.0624 46.7839C67.053 46.7649 67.0479 46.7444 67.0474 46.7236C67.0469 46.7028 67.0511 46.6822 67.0597 46.6628C71.3347 37.0409 76.1697 27.6211 81.5453 18.4415C81.5672 18.4042 81.605 18.3762 81.6503 18.3635C81.6727 18.3573 81.6963 18.355 81.7197 18.3568C81.7432 18.3586 81.7659 18.3645 81.7868 18.3741C81.8076 18.3837 81.8262 18.3969 81.8413 18.4128C81.8564 18.4288 81.8678 18.4472 81.8749 18.467C81.8819 18.4869 81.8845 18.5078 81.8825 18.5285C81.8804 18.5492 81.8738 18.5694 81.8629 18.5878C76.4928 27.7579 71.663 37.1679 67.3927 46.7799C67.3794 46.8096 67.3563 46.8349 67.3263 46.8527C67.2964 46.8704 67.2633 46.8798 67.2273 46.8795Z" fill="black" fill-opacity="0.5"/>
<path d="M71.9702 47.2665C71.9397 47.2666 71.9096 47.2599 71.8829 47.2468C71.8562 47.2338 71.8338 47.215 71.8176 47.1921C71.8015 47.1692 71.7922 47.143 71.7907 47.1161C71.7893 47.0891 71.7956 47.0623 71.8091 47.0381L82.3066 28.045C82.3274 28.0072 82.3643 27.9782 82.4092 27.9645C82.454 27.9508 82.5033 27.9534 82.546 27.9718C82.5887 27.9901 82.6214 28.0228 82.6369 28.0625C82.6524 28.1022 82.6494 28.1457 82.6287 28.1835L72.1312 47.1787C72.1161 47.205 72.0931 47.2272 72.0647 47.2427C72.0363 47.2582 72.0036 47.2664 71.9702 47.2665Z" fill="black" fill-opacity="0.5"/>
<path d="M78.2299 43.4089C78.1994 43.409 78.1694 43.4022 78.1427 43.3892C78.116 43.3762 78.0935 43.3573 78.0774 43.3344C78.0612 43.3116 78.052 43.2854 78.0505 43.2584C78.049 43.2315 78.0554 43.2047 78.0689 43.1805L82.5247 35.2698C82.5351 35.251 82.5496 35.2343 82.5673 35.2206C82.585 35.2068 82.6056 35.1963 82.628 35.1896C82.6503 35.1829 82.6739 35.1801 82.6974 35.1815C82.721 35.1829 82.7439 35.1883 82.7651 35.1975C82.7862 35.2068 82.8051 35.2196 82.8207 35.2353C82.8362 35.251 82.8481 35.2692 82.8557 35.289C82.8633 35.3087 82.8664 35.3296 82.8648 35.3504C82.8633 35.3712 82.8571 35.3916 82.8467 35.4103L78.391 43.321C78.3761 43.3475 78.3531 43.3698 78.3247 43.3853C78.2962 43.4009 78.2634 43.409 78.2299 43.4089Z" fill="black" fill-opacity="0.5"/>
<g opacity="0.129">
<mask id="mask2_320_73" style="mask-type:luminance" maskUnits="userSpaceOnUse" x="22" y="10" width="53" height="34">
<path d="M74.2044 10.8435H22.4868V43.1969H74.2044V10.8435Z" fill="white"/>
</mask>
<g mask="url(#mask2_320_73)">
<path d="M73.5776 17.2706C73.4058 16.6479 73.1665 16.0413 72.8629 15.4593C72.8982 15.5022 72.9886 15.7521 72.9688 15.6701C72.7041 14.9752 72.4548 14.2726 72.1284 13.5973C72.3865 14.1418 71.8593 13.0117 71.7181 12.7931C71.426 12.2577 71.0703 11.7512 70.6571 11.2824C70.5791 11.167 70.4725 11.0687 70.3454 10.995C70.2183 10.9213 70.0739 10.874 69.9232 10.8567C69.7725 10.8395 69.6193 10.8526 69.4752 10.8952C69.331 10.9379 69.1997 11.0088 69.091 11.1028C68.513 11.6396 68.9057 12.1841 69.3116 12.6643C69.5683 12.9833 69.7608 13.3393 69.8806 13.7163C70.2159 14.6922 70.4409 15.3871 70.5997 15.9277C70.5459 15.9749 70.4992 16.0281 70.4608 16.0858C70.228 17.2019 70.0652 18.3285 69.9733 19.4605C69.9424 19.6108 69.9424 19.644 69.949 19.6186C69.7527 20.8014 69.466 22.0525 69.2365 23.5457C68.8717 25.314 68.3185 27.0478 67.5844 28.7239C66.6806 30.6204 65.2076 32.2619 63.325 33.4707C61.1283 34.7179 58.7549 35.7023 56.2663 36.3984C53.3739 37.1263 50.4007 37.5739 47.399 37.7335C43.7528 38.0516 40.1043 38.319 36.4647 38.7094C33.9325 38.9046 31.8943 38.9573 29.973 39.2559C29.212 39.3613 28.4598 39.5038 27.7076 39.6463L27.6437 39.6677L26.5694 39.7048C26.3491 39.7011 26.1313 39.7461 25.9356 39.8357C25.7399 39.9253 25.5726 40.0568 25.4489 40.2181L24.6504 40.144C24.2254 40.0405 23.7752 40.0521 23.3578 40.1771C23.0565 40.293 22.8092 40.4968 22.6572 40.7544C22.5052 41.0121 22.4576 41.3081 22.5223 41.593C22.5871 41.878 22.7603 42.1347 23.0131 42.3203C23.2659 42.5059 23.583 42.6092 23.9114 42.613C28.8643 43.12 33.8531 43.2975 38.836 43.1439C41.3947 43.0639 43.9248 42.7204 46.4659 42.4744C51.2128 42.1433 55.9291 41.5303 60.5831 40.6397C62.6462 40.3428 64.6222 39.6864 66.3965 38.7088C68.1708 37.7311 69.7082 36.4516 70.9196 34.9443C74.0061 29.4796 74.9416 23.2593 73.5776 17.2706ZM68.6189 33.3809C68.2037 34.1168 67.6236 34.7703 66.9138 35.3015C66.868 35.1507 66.7849 35.0108 66.6705 34.892C66.556 34.7732 66.4131 34.6784 66.2521 34.6145C67.9424 33.2632 69.2883 31.6092 70.2005 29.7622C70.1498 29.9301 70.099 30.096 70.0439 30.2658C69.7532 31.3602 69.2749 32.4088 68.6255 33.3751" fill="black" fill-opacity="0.5"/>
</g>
</g>
</g>
</g>
</svg>
