<svg height="742" viewBox="-2100 -1470 4200 2940" width="1060" xmlns="http://www.w3.org/2000/svg" xmlns:xlink="http://www.w3.org/1999/xlink"><defs><g id="a"><use height="100%" width="100%" xlink:href="#k"/><path d="m28 0c0-10 0-32-15-32h-19c22 0 22 22 22 32"/></g><g id="b" fill="#fff"><g id="c"><path id="d" d="m0-1v1h.5" transform="matrix(.95105652 .30901699 -.30901699 .95105652 -.309017 -.048943)"/><use height="100%" transform="scale(-1 1)" width="100%" xlink:href="#d"/></g><use height="100%" transform="matrix(.30901699 .95105652 -.95105652 .30901699 0 0)" width="100%" xlink:href="#c"/><use height="100%" transform="matrix(.30901699 -.95105652 .95105652 .30901699 0 0)" width="100%" xlink:href="#c"/><use height="100%" transform="matrix(-.80901699 .58778525 -.58778525 -.80901699 0 0)" width="100%" xlink:href="#c"/><use height="100%" transform="matrix(-.80901699 -.58778525 .58778525 -.80901699 0 0)" width="100%" xlink:href="#c"/></g><g id="e"><use height="100%" transform="scale(31.5)" width="100%" xlink:href="#b"/></g><g id="f"><use height="100%" transform="scale(26.25)" width="100%" xlink:href="#b"/></g><g id="g"><use height="100%" transform="scale(21)" width="100%" xlink:href="#b"/></g><g id="h"><use height="100%" transform="scale(15)" width="100%" xlink:href="#b"/></g><path id="i" d="m0 0h63v-13h-51v-18h40v-12h-40v-14h48v-13h-60z" transform="translate(-31.5)"/><path id="j" d="m0 0a31.5 35 0 0 0 0-70 31.5 35 0 0 0 0 70m0-13a18.5 22 0 0 0 0-44 18.5 22 0 0 0 0 44" fill-rule="evenodd"/><path id="k" d="m-31.5 0h13v-26h28a22 22 0 0 0 0-44h-40zm13-39h27a9 9 0 0 0 0-18h-27z" fill-rule="evenodd"/><path id="l" d="m-15.75-22c0 7 6.75 10.5 16.75 10.5s14.74-3.25 14.75-7.75c0-14.25-46.75-5.25-46.5-30.25.25-21.5 24.75-20.5 33.75-20.5s26 4 25.75 21.25h-15.25c0-7.5-7-10.25-15-10.25-7.75 0-13.25 1.25-13.25 8.5-.25 11.75 46.25 4 46.25 28.75 0 18.25-18 21.75-31.5 21.75-11.5 0-31.55-4.5-31.5-22z"/><clipPath id="m"><path d="m-31.5 0v-70h63v70zm31.5-47v12h31.5v-12z"/></clipPath><clipPath id="n"><circle r="735"/></clipPath></defs><path d="m-2100-1470h4200v2940h-4200z" fill="#009b3a"/><path d="m-1743 0 1743 1113 1743-1113-1743-1113z" fill="#fedf00"/><circle fill="#002776" r="735"/><path clip-path="url(#n)" d="m-2205 1470a1785 1785 0 0 1 3570 0h-105a1680 1680 0 1 0 -3360 0z" fill="#fff"/><g fill="#009b3a" transform="translate(-420 1470)"><use height="100%" transform="matrix(.99254615 -.12186934 .12186934 .99254615 0 0)" width="100%" xlink:href="#j" y="-1697.5"/><use height="100%" transform="matrix(.99756405 -.06975647 .06975647 .99756405 0 0)" width="100%" xlink:href="#a" y="-1697.5"/><path d="m-31.5 0h33a30 30 0 0 0 30-30v-10a30 30 0 0 0 -30-30h-33zm13-13h19a19 19 0 0 0 19-19v-6a19 19 0 0 0 -19-19h-19z" fill-rule="evenodd" height="100%" transform="matrix(.9998477 -.01745241 .01745241 .9998477 -29.625465975 -1697.24147075)" width="100%"/><use height="100%" transform="matrix(.99939083 .0348995 -.0348995 .99939083 0 0)" width="100%" xlink:href="#i" y="-1697.5"/><path d="m-31.5 0h12v-48l14 48h11l14-48v48h12v-70h-17.5l-14 48-14-48h-17.5z" height="100%" transform="matrix(.9961947 .08715574 -.08715574 .9961947 147.94686865 -1691.04050325)" width="100%"/><path d="m-26.25 0h52.5v-12h-40.5v-16h33v-12h-33v-11h39.25v-12h-51.25z" height="100%" transform="matrix(.98555606 .1693495 -.1693495 .98555606 287.47077625 -1672.98141185)" width="100%"/><use height="100%" transform="matrix(.96814764 .25038 -.25038 .96814764 0 0)" width="100%" xlink:href="#k" y="-1697.5"/><use height="100%" transform="matrix(.95371695 .3007058 -.3007058 .95371695 0 0)" width="100%" xlink:href="#a" y="-1697.5"/><use height="100%" transform="matrix(.93667219 .35020738 -.35020738 .93667219 0 0)" width="100%" xlink:href="#j" y="-1697.5"/><g height="100%" transform="matrix(.91706007 .39874907 -.39874907 .91706007 676.876546325 -1556.709468825)" width="100%"><use clip-path="url(#m)" height="100%" width="100%" xlink:href="#j"/><path d="m5-35h26.5v10h-26.5z"/><path d="m21.5-35h10v35h-10z"/></g><use height="100%" transform="matrix(.89493436 .44619781 -.44619781 .89493436 0 0)" width="100%" xlink:href="#a" y="-1697.5"/><use height="100%" transform="matrix(.8703557 .49242356 -.49242356 .8703557 0 0)" width="100%" xlink:href="#i" y="-1697.5"/><use height="100%" transform="matrix(.84339145 .53729961 -.53729961 .84339145 0 0)" width="100%" xlink:href="#l" y="-1697.5"/><use height="100%" transform="matrix(.81411552 .58070296 -.58070296 .81411552 0 0)" width="100%" xlink:href="#l" y="-1697.5"/><use height="100%" transform="matrix(.78260816 .62251464 -.62251464 .78260816 0 0)" width="100%" xlink:href="#j" y="-1697.5"/></g><use height="100%" width="100%" x="-600" xlink:href="#e" y="-132"/><use height="100%" width="100%" x="-535" xlink:href="#e" y="177"/><use height="100%" width="100%" x="-625" xlink:href="#f" y="243"/><use height="100%" width="100%" x="-463" xlink:href="#h" y="132"/><use height="100%" width="100%" x="-382" xlink:href="#f" y="250"/><use height="100%" width="100%" x="-404" xlink:href="#g" y="323"/><use height="100%" width="100%" x="228" xlink:href="#e" y="-228"/><use height="100%" width="100%" x="515" xlink:href="#e" y="258"/><use height="100%" width="100%" x="617" xlink:href="#g" y="265"/><use height="100%" width="100%" x="545" xlink:href="#f" y="323"/><use height="100%" width="100%" x="368" xlink:href="#f" y="477"/><use height="100%" width="100%" x="367" xlink:href="#g" y="551"/><use height="100%" width="100%" x="441" xlink:href="#g" y="419"/><use height="100%" width="100%" x="500" xlink:href="#f" y="382"/><use height="100%" width="100%" x="365" xlink:href="#g" y="405"/><use height="100%" width="100%" x="-280" xlink:href="#f" y="30"/><use height="100%" width="100%" x="200" xlink:href="#g" y="-37"/><use height="100%" width="100%" xlink:href="#e" y="330"/><use height="100%" width="100%" x="85" xlink:href="#f" y="184"/><use height="100%" width="100%" xlink:href="#f" y="118"/><use height="100%" width="100%" x="-74" xlink:href="#g" y="184"/><use height="100%" width="100%" x="-37" xlink:href="#h" y="235"/><use height="100%" width="100%" x="220" xlink:href="#f" y="495"/><use height="100%" width="100%" x="283" xlink:href="#g" y="430"/><use height="100%" width="100%" x="162" xlink:href="#g" y="412"/><use height="100%" width="100%" x="-295" xlink:href="#e" y="390"/><use height="100%" transform="matrix(10.5 0 0 10.5 0 575)" width="100%" xlink:href="#b"/></svg>