<?xml version="1.0" encoding="UTF-8" standalone="no"?><!DOCTYPE svg PUBLIC "-//W3C//DTD SVG 1.1//EN" "http://www.w3.org/Graphics/SVG/1.1/DTD/svg11.dtd"><svg width="100%" height="100%" viewBox="0 0 31 32" version="1.1" xmlns="http://www.w3.org/2000/svg" xmlns:xlink="http://www.w3.org/1999/xlink" xml:space="preserve" xmlns:serif="http://www.serif.com/" style="fill-rule:evenodd;clip-rule:evenodd;stroke-linejoin:round;stroke-miterlimit:2;"><path d="M10.873,24.597l-4.851,0l-3.954,-6.774l3.671,-6.561l-3.347,-0l-2.392,-4.58l16.108,-0l2.52,4.318l-7.639,0l-3.96,6.897l3.844,6.7Z" style="fill:#3d5380;fill-rule:nonzero;"/><path d="M9.939,17.786l2.527,-4.386l3.825,6.958l7.67,0l4.064,-6.736l2.379,3.979l-4.027,7.236l-7.633,0l1.574,2.37l-2.379,4.793l-8,-14.214Z" style="fill:#3d5380;fill-rule:nonzero;"/><path d="M17.628,17.712l4.887,0l8.152,-14.048l-5.113,-0.135l-1.587,2.887l-3.709,-6.416l-8.213,-0l-2.111,4.158l7.688,0l3.88,6.75l-3.874,6.804Z" style="fill:#3d5380;fill-rule:nonzero;"/></svg>