<svg clip-rule="evenodd" fill-rule="evenodd" stroke-linecap="round" stroke-linejoin="round" viewBox="0 0 24 24" xmlns="http://www.w3.org/2000/svg" xmlns:xlink="http://www.w3.org/1999/xlink"><linearGradient id="a" gradientTransform="matrix(18 0 0 17.9997 2.9995 12.0002)" gradientUnits="userSpaceOnUse" x1="0" x2="1" y1="0" y2="0"><stop offset="0" stop-color="#d7b440"/><stop offset="1" stop-color="#689656"/></linearGradient><path d="m17.982 18.725c-1.416-1.874-3.633-2.977-5.982-2.975-2.349-.002-4.566 1.101-5.982 2.975m11.963 0c1.919-1.707 3.018-4.156 3.018-6.725 0-4.937-4.062-9-9-9-4.937 0-9 4.063-9 9 0 2.569 1.1 5.018 3.019 6.725m11.963 0c-1.646 1.468-3.776 2.278-5.981 2.275-2.205.003-4.336-.807-5.982-2.275m8.982-8.975c0 1.646-1.354 3-3 3s-3-1.354-3-3 1.354-3 3-3 3 1.354 3 3z" fill="none" stroke="url(#a)" stroke-width="1.5"/></svg>