<?xml version="1.0" encoding="UTF-8" standalone="no"?><!DOCTYPE svg PUBLIC "-//W3C//DTD SVG 1.1//EN" "http://www.w3.org/Graphics/SVG/1.1/DTD/svg11.dtd"><svg width="100%" height="100%" viewBox="0 0 24 24" version="1.1" xmlns="http://www.w3.org/2000/svg" xmlns:xlink="http://www.w3.org/1999/xlink" xml:space="preserve" xmlns:serif="http://www.serif.com/" style="fill-rule:evenodd;clip-rule:evenodd;stroke-linecap:round;stroke-linejoin:round;"><path d="M17.982,18.725c-1.416,-1.874 -3.633,-2.977 -5.982,-2.975c-2.349,-0.002 -4.566,1.101 -5.982,2.975m11.963,0c1.919,-1.707 3.018,-4.156 3.018,-6.725c0,-4.937 -4.062,-9 -9,-9c-4.937,0 -9,4.063 -9,9c0,2.569 1.1,5.018 3.019,6.725m11.963,0c-1.646,1.468 -3.776,2.278 -5.981,2.275c-2.205,0.003 -4.336,-0.807 -5.982,-2.275m8.982,-8.975c0,1.646 -1.354,3 -3,3c-1.646,-0 -3,-1.354 -3,-3c0,-1.646 1.354,-3 3,-3c1.646,-0 3,1.354 3,3Z" style="fill:none;fill-rule:nonzero;stroke:url(#_Linear1);stroke-width:1.5px;"/><defs><linearGradient id="_Linear1" x1="0" y1="0" x2="1" y2="0" gradientUnits="userSpaceOnUse" gradientTransform="matrix(18,0,0,17.9997,2.9995,12.0002)"><stop offset="0" style="stop-color:#d7b440;stop-opacity:1"/><stop offset="1" style="stop-color:#689656;stop-opacity:1"/></linearGradient></defs></svg>