<?xml version="1.0" encoding="UTF-8" standalone="no"?><!DOCTYPE svg PUBLIC "-//W3C//DTD SVG 1.1//EN" "http://www.w3.org/Graphics/SVG/1.1/DTD/svg11.dtd"><svg width="100%" height="100%" viewBox="0 0 272 52" version="1.1" xmlns="http://www.w3.org/2000/svg" xmlns:xlink="http://www.w3.org/1999/xlink" xml:space="preserve" xmlns:serif="http://www.serif.com/" style="fill-rule:evenodd;clip-rule:evenodd;stroke-linejoin:round;stroke-miterlimit:2;"><path d="M186.677,4.763c-0.439,-0.109 -0.631,-0.116 -0.775,-0.202c-0.403,-0.239 -0.845,-0.454 -1.164,-0.782c-2.99,-3.076 -6.263,-2.354 -9.539,-0.66c-11.087,5.73 -20.075,22.144 -18.975,34.566c1.053,11.886 10.5,16.91 20.847,10.895c2.595,-1.508 4.711,-3.84 6.97,-5.73c2.303,8.875 7.195,10.358 14.384,4.129c1.262,-1.093 2.475,-2.241 4.097,-3.716c0.181,0.972 0.248,1.421 0.348,1.864c1.259,5.579 5.5,7.15 10.051,3.649c1.175,-0.904 2.158,-2.073 3.173,-3.171c0.771,-0.835 1.454,-1.752 2.372,-2.871c1.028,6.314 3.856,8.902 8.184,7.543c1.905,-0.597 3.624,-1.873 5.325,-2.997c1.137,-0.751 2.092,-1.777 3.219,-2.76c1.142,4.943 4.254,6.854 9.257,5.909c8.327,-1.573 14.778,-7.862 16.227,-16.252c0.353,-2.04 1.192,-2.838 2.987,-3.364c2.695,-0.789 5.326,-1.796 7.983,-2.711c-0.089,-0.393 -0.178,-0.785 -0.266,-1.179c-3.422,0.497 -6.844,0.994 -10.391,1.509c-2.394,-5.766 -6.888,-4.156 -11.709,-2.558c1.225,-2.445 2.344,-4.298 3.107,-6.288c1.235,-3.219 2.591,-6.458 3.249,-9.816c0.926,-4.726 -2.868,-8.581 -7.641,-8.047c1.933,2.95 0.814,5.75 -0.341,8.533c-3.191,7.694 -6.952,15.208 -9.425,23.127c-1.9,6.089 -6.019,9.723 -10.602,13.281c-0.706,0.549 -1.858,0.524 -2.805,0.764c-0.124,-0.968 -0.496,-1.985 -0.316,-2.892c0.269,-1.358 0.781,-2.719 1.447,-3.937c1.884,-3.451 3.862,-6.852 5.876,-10.23c1.186,-1.989 2.412,-4.051 0.987,-6.266c-1.418,-2.203 -3.605,-3.428 -6.31,-3.503c-2.532,8.995 -13.18,24.739 -17.85,25.766c0.593,-2.01 0.889,-3.865 1.67,-5.486c1.99,-4.126 4.403,-8.059 6.211,-12.258c0.68,-1.583 0.877,-4.172 0.018,-5.435c-1.339,-1.969 -3.782,-3.154 -5.903,-3.011c-1.013,2.903 -1.727,5.383 -2.74,7.734c-1.072,2.488 -2.509,4.816 -3.643,7.281c-2.378,5.173 -6.488,8.648 -11.245,11.403c-2.3,1.333 -3.945,0.389 -3.508,-2.178c0.75,-4.397 2.109,-8.693 3.316,-13.003c0.137,-0.49 0.905,-0.847 1.436,-1.177c7.362,-4.581 12.357,-11.076 15.429,-19.11c0.88,-2.304 0.678,-4.387 -1.474,-6.032c-2.243,-1.717 -4.795,-2.962 -7.155,-0.937c-2.572,2.208 -5.326,4.709 -6.72,7.683c-3.487,7.439 -6.76,15.062 -9.148,22.906c-2.028,6.659 -6.407,10.225 -12.411,12.18c-6.574,2.14 -11.661,-1.801 -11.697,-8.665c-0.008,-1.484 0.149,-3.018 0.538,-4.445c2.477,-9.104 7.72,-16.382 15.154,-22.056c1.753,-1.338 3.992,-2.041 6.232,-3.146c-0.777,3.337 -1.41,6.064 -2.045,8.791c4.195,-2.833 7.771,-5.783 11.213,-8.882c0.558,-0.502 0.858,-1.745 0.688,-2.516c-0.554,-2.509 -2.266,-4.106 -4.63,-5.205c-0.588,1.485 -1.083,2.737 -1.567,3.961Zm19.683,2.03c-0.64,7.612 -4.617,13.222 -10.421,17.735c2.97,-6.213 5.008,-12.987 10.421,-17.735Zm46.551,21.255c0.941,-0.245 2.177,0.642 3.277,1.007c-0.651,0.807 -1.149,1.857 -1.98,2.378c-3.288,2.065 -6.681,3.963 -10.281,6.066c1.474,-4.928 4.27,-8.22 8.984,-9.451Zm-12.448,18.934c0.987,-1.73 1.426,-3.359 2.488,-4.209c3.671,-2.933 7.56,-5.594 11.539,-8.114c-1.246,6.535 -7.471,12.334 -13.573,12.334c-0.151,0 -0.303,-0.003 -0.454,-0.011Z" style="fill:url(#_Linear1);fill-rule:nonzero;"/><path d="M132.605,4.223c-2.495,2.002 -5.159,4.39 -6.433,7.205c-3.618,7.999 -6.972,16.171 -9.631,24.529c-1.764,5.552 -5.847,8.207 -10.259,10.745c-0.794,0.458 -3.046,-0.29 -3.697,-1.169c-1.641,-2.217 -0.265,-5.45 2.247,-6.61c4.649,-2.149 9.077,-4.637 11.023,-9.811c1.38,-3.669 0.848,-4.789 -3.178,-7.438c-3.501,-2.304 -4.368,-2.239 -7.326,0.549c-3.003,2.828 -7.26,2.826 -10.538,0.146c-1.071,-0.875 -2.415,-1.416 -3.833,-2.224c0.152,3.264 0.56,5.968 0.347,8.621c-0.542,6.722 -3.321,12.451 -8.517,16.847c-0.693,0.587 -2.126,1.11 -2.738,0.779c-0.788,-0.427 -1.502,-1.74 -1.515,-2.681c-0.023,-1.74 0.071,-3.708 0.858,-5.187c2.048,-3.849 4.239,-7.681 6.876,-11.137c1.819,-2.383 0.391,-3.323 -1.034,-4.513c-3.681,-3.073 -5.002,-3.411 -6.3,-1.438c-2.989,4.54 -5.805,9.166 -6.955,14.628c-0.326,1.548 -1.159,3.167 -2.217,4.34c-1.746,1.937 -3.826,3.585 -5.848,5.254c-0.711,0.586 -1.668,0.875 -2.513,1.299c-0.259,-0.178 -0.516,-0.357 -0.774,-0.536c0.557,-2.005 0.848,-4.137 1.722,-5.992c2.275,-4.827 4.78,-9.547 7.25,-14.28c0.927,-1.777 1.248,-3.126 -0.88,-4.453c-3.843,-2.393 -3.766,-2.515 -6.545,1.579c-6.753,-3.949 -9.628,-3.52 -14.522,2.566c-1.738,2.163 -3.314,4.63 -4.27,7.214c-2.041,5.512 -6.232,9.037 -10.6,12.43c-0.881,0.683 -2.348,0.608 -3.545,0.884c0.17,-1.227 0.044,-2.599 0.563,-3.654c1.859,-3.777 3.866,-7.487 5.959,-11.142c1.433,-2.504 1.025,-4.529 -1.276,-6.079c-2.351,-1.584 -4.644,-3.049 -3.564,-6.503c0.141,-0.452 -0.185,-1.108 -0.422,-1.609c-0.856,-1.812 -2.405,-3.084 -4.238,-2.177c-1.108,0.548 -1.948,2.327 -2.212,3.687c-0.224,1.157 0.243,2.724 0.95,3.724c1.225,1.735 0.784,3.114 -0.223,4.581c-2.541,3.702 -5.154,7.357 -7.597,11.123c-0.445,0.685 -0.227,1.8 -0.315,2.717c0.874,-0.222 1.953,-0.201 2.574,-0.723c0.905,-0.76 1.523,-1.883 2.187,-2.901c2.286,-3.508 4.538,-7.038 6.804,-10.559c0.244,0.113 0.488,0.227 0.732,0.34c-0.615,1.472 -1.281,2.924 -1.835,4.417c-1.459,3.925 -3.486,7.767 -4.151,11.828c-0.947,5.784 3.703,8.765 8.997,6.126c1.899,-0.946 3.552,-2.408 5.256,-3.714c1.013,-0.777 1.908,-1.708 3.061,-2.757c0.161,0.815 0.246,1.258 0.337,1.699c0.48,2.329 0.92,4.805 3.633,5.528c2.731,0.729 4.608,-1.054 6.352,-2.791c1.299,-1.295 2.477,-2.711 3.838,-4.216c0.253,0.538 0.419,0.765 0.468,1.014c1.312,6.698 4.631,8.132 10.292,4.243c2.196,-1.508 4.097,-3.441 6.212,-5.248c0.229,0.398 0.405,0.611 0.484,0.855c2.162,6.73 6.592,8.278 12.403,4.143c5.191,-3.694 8.222,-8.899 9.676,-15.032c0.531,-2.241 0.846,-4.532 1.234,-6.66c1.999,0.171 3.734,0.32 5.686,0.488c-0.549,1.046 -1.047,1.928 -1.481,2.839c-2.161,4.548 -3.763,9.211 -2.784,14.366c0.776,4.085 3.916,6.905 7.973,6.219c2.511,-0.425 4.877,-2.083 7.138,-3.463c1.385,-0.845 2.449,-2.214 3.791,-3.474c0.332,0.917 0.535,1.522 0.769,2.114c1.904,4.823 5.458,6.498 9.776,3.731c3.645,-2.334 6.731,-5.598 9.854,-8.664c1.25,-1.229 1.203,-2.84 -0.392,-3.564c-3.46,3.078 -6.577,6.035 -9.922,8.71c-0.942,0.753 -2.548,0.672 -3.851,0.975c-0.28,-1.226 -0.999,-2.543 -0.762,-3.66c0.814,-3.832 1.903,-7.61 3.037,-11.365c0.201,-0.668 1.041,-1.239 1.709,-1.657c7.263,-4.557 12.217,-10.993 15.285,-18.904c0.844,-2.174 0.888,-4.381 -1.279,-6.116c-1.648,-1.319 -3.117,-2.094 -4.541,-2.094c-0.954,-0 -1.887,0.348 -2.84,1.113Zm5.206,2.59c-0.279,7.627 -4.494,13.009 -10.072,17.608c2.655,-6.258 5.03,-12.672 10.072,-17.608Zm-24.757,18.587c0.558,3.627 -3.203,7.354 -7.825,8.689c2.813,-3.123 5.319,-5.906 7.825,-8.689Zm-66.635,18.378c1.058,-5.724 3.46,-10.839 7.383,-15.147c2.058,-2.259 3.554,-2.532 6.376,-1.679c-3.234,7.468 -7.453,14.057 -13.781,20.215c-0,-1.645 -0.134,-2.543 0.022,-3.389Z" style="fill:url(#_Linear2);fill-rule:nonzero;"/><path d="M29.476,2.572c-5.71,-0.153 -11.421,-0.449 -17.119,-0.861c-3.486,-0.252 -6.767,0.125 -9.624,2.235c-2.902,2.144 -3.568,5.74 -1.636,8.05c1.859,-5.149 5.619,-6.272 13.415,-3.786c-0.945,2.248 -1.907,4.459 -2.809,6.695c-2.481,6.151 -5.263,12.208 -7.302,18.505c-1.653,5.102 -1.325,10.429 1.41,15.263c0.585,1.034 1.922,1.643 2.912,2.448c-0.931,-6.799 -0.703,-10.41 2.091,-16.477c3.896,-8.46 7.996,-16.825 12.049,-25.313c2.111,-0.125 4.843,-0.044 7.485,-0.495c4.821,-0.823 6.716,-5.356 3.818,-8.836c-0.592,2.643 -2.801,2.622 -4.69,2.572Z" style="fill:url(#_Linear3);fill-rule:nonzero;"/><defs><linearGradient id="_Linear1" x1="0" y1="0" x2="1" y2="0" gradientUnits="userSpaceOnUse" gradientTransform="matrix(115.515,0,0,115.515,156.133,25.9654)"><stop offset="0" style="stop-color:#018359;stop-opacity:1"/><stop offset="1" style="stop-color:#fdb400;stop-opacity:1"/></linearGradient><linearGradient id="_Linear2" x1="0" y1="0" x2="1" y2="0" gradientUnits="userSpaceOnUse" gradientTransform="matrix(124.918,0,0,124.918,16.8853,26.947)"><stop offset="0" style="stop-color:#184c73;stop-opacity:1"/><stop offset="1" style="stop-color:#009aaa;stop-opacity:1"/></linearGradient><linearGradient id="_Linear3" x1="0" y1="0" x2="1" y2="0" gradientUnits="userSpaceOnUse" gradientTransform="matrix(35.5367,0,0,35.5367,0.000216999,25.5602)"><stop offset="0" style="stop-color:#184c73;stop-opacity:1"/><stop offset="1" style="stop-color:#007392;stop-opacity:1"/></linearGradient></defs></svg>