<svg clip-rule="evenodd" fill-rule="evenodd" stroke-linejoin="round" stroke-miterlimit="2" viewBox="0 0 272 52" xmlns="http://www.w3.org/2000/svg" xmlns:xlink="http://www.w3.org/1999/xlink"><linearGradient id="a" gradientUnits="userSpaceOnUse" x1="156.133" x2="271.648" y1="25.9654" y2="25.9654"><stop offset="0" stop-color="#018359"/><stop offset="1" stop-color="#fdb400"/></linearGradient><linearGradient id="b" gradientUnits="userSpaceOnUse" x1="16.8853" x2="141.8033" y1="26.947" y2="26.947"><stop offset="0" stop-color="#184c73"/><stop offset="1" stop-color="#009aaa"/></linearGradient><linearGradient id="c" gradientUnits="userSpaceOnUse" x1=".000217" x2="35.536917" y1="25.5602" y2="25.5602"><stop offset="0" stop-color="#184c73"/><stop offset="1" stop-color="#007392"/></linearGradient><g fill-rule="nonzero"><path d="m186.677 4.763c-.439-.109-.631-.116-.775-.202-.403-.239-.845-.454-1.164-.782-2.99-3.076-6.263-2.354-9.539-.66-11.087 5.73-20.075 22.144-18.975 34.566 1.053 11.886 10.5 16.91 20.847 10.895 2.595-1.508 4.711-3.84 6.97-5.73 2.303 8.875 7.195 10.358 14.384 4.129 1.262-1.093 2.475-2.241 4.097-3.716.181.972.248 1.421.348 1.864 1.259 5.579 5.5 7.15 10.051 3.649 1.175-.904 2.158-2.073 3.173-3.171.771-.835 1.454-1.752 2.372-2.871 1.028 6.314 3.856 8.902 8.184 7.543 1.905-.597 3.624-1.873 5.325-2.997 1.137-.751 2.092-1.777 3.219-2.76 1.142 4.943 4.254 6.854 9.257 5.909 8.327-1.573 14.778-7.862 16.227-16.252.353-2.04 1.192-2.838 2.987-3.364 2.695-.789 5.326-1.796 7.983-2.711-.089-.393-.178-.785-.266-1.179-3.422.497-6.844.994-10.391 1.509-2.394-5.766-6.888-4.156-11.709-2.558 1.225-2.445 2.344-4.298 3.107-6.288 1.235-3.219 2.591-6.458 3.249-9.816.926-4.726-2.868-8.581-7.641-8.047 1.933 2.95.814 5.75-.341 8.533-3.191 7.694-6.952 15.208-9.425 23.127-1.9 6.089-6.019 9.723-10.602 13.281-.706.549-1.858.524-2.805.764-.124-.968-.496-1.985-.316-2.892.269-1.358.781-2.719 1.447-3.937 1.884-3.451 3.862-6.852 5.876-10.23 1.186-1.989 2.412-4.051.987-6.266-1.418-2.203-3.605-3.428-6.31-3.503-2.532 8.995-13.18 24.739-17.85 25.766.593-2.01.889-3.865 1.67-5.486 1.99-4.126 4.403-8.059 6.211-12.258.68-1.583.877-4.172.018-5.435-1.339-1.969-3.782-3.154-5.903-3.011-1.013 2.903-1.727 5.383-2.74 7.734-1.072 2.488-2.509 4.816-3.643 7.281-2.378 5.173-6.488 8.648-11.245 11.403-2.3 1.333-3.945.389-3.508-2.178.75-4.397 2.109-8.693 3.316-13.003.137-.49.905-.847 1.436-1.177 7.362-4.581 12.357-11.076 15.429-19.11.88-2.304.678-4.387-1.474-6.032-2.243-1.717-4.795-2.962-7.155-.937-2.572 2.208-5.326 4.709-6.72 7.683-3.487 7.439-6.76 15.062-9.148 22.906-2.028 6.659-6.407 10.225-12.411 12.18-6.574 2.14-11.661-1.801-11.697-8.665-.008-1.484.149-3.018.538-4.445 2.477-9.104 7.72-16.382 15.154-22.056 1.753-1.338 3.992-2.041 6.232-3.146-.777 3.337-1.41 6.064-2.045 8.791 4.195-2.833 7.771-5.783 11.213-8.882.558-.502.858-1.745.688-2.516-.554-2.509-2.266-4.106-4.63-5.205-.588 1.485-1.083 2.737-1.567 3.961zm19.683 2.03c-.64 7.612-4.617 13.222-10.421 17.735 2.97-6.213 5.008-12.987 10.421-17.735zm46.551 21.255c.941-.245 2.177.642 3.277 1.007-.651.807-1.149 1.857-1.98 2.378-3.288 2.065-6.681 3.963-10.281 6.066 1.474-4.928 4.27-8.22 8.984-9.451zm-12.448 18.934c.987-1.73 1.426-3.359 2.488-4.209 3.671-2.933 7.56-5.594 11.539-8.114-1.246 6.535-7.471 12.334-13.573 12.334-.151 0-.303-.003-.454-.011z" fill="url(#a)"/><path d="m132.605 4.223c-2.495 2.002-5.159 4.39-6.433 7.205-3.618 7.999-6.972 16.171-9.631 24.529-1.764 5.552-5.847 8.207-10.259 10.745-.794.458-3.046-.29-3.697-1.169-1.641-2.217-.265-5.45 2.247-6.61 4.649-2.149 9.077-4.637 11.023-9.811 1.38-3.669.848-4.789-3.178-7.438-3.501-2.304-4.368-2.239-7.326.549-3.003 2.828-7.26 2.826-10.538.146-1.071-.875-2.415-1.416-3.833-2.224.152 3.264.56 5.968.347 8.621-.542 6.722-3.321 12.451-8.517 16.847-.693.587-2.126 1.11-2.738.779-.788-.427-1.502-1.74-1.515-2.681-.023-1.74.071-3.708.858-5.187 2.048-3.849 4.239-7.681 6.876-11.137 1.819-2.383.391-3.323-1.034-4.513-3.681-3.073-5.002-3.411-6.3-1.438-2.989 4.54-5.805 9.166-6.955 14.628-.326 1.548-1.159 3.167-2.217 4.34-1.746 1.937-3.826 3.585-5.848 5.254-.711.586-1.668.875-2.513 1.299-.259-.178-.516-.357-.774-.536.557-2.005.848-4.137 1.722-5.992 2.275-4.827 4.78-9.547 7.25-14.28.927-1.777 1.248-3.126-.88-4.453-3.843-2.393-3.766-2.515-6.545 1.579-6.753-3.949-9.628-3.52-14.522 2.566-1.738 2.163-3.314 4.63-4.27 7.214-2.041 5.512-6.232 9.037-10.6 12.43-.881.683-2.348.608-3.545.884.17-1.227.044-2.599.563-3.654 1.859-3.777 3.866-7.487 5.959-11.142 1.433-2.504 1.025-4.529-1.276-6.079-2.351-1.584-4.644-3.049-3.564-6.503.141-.452-.185-1.108-.422-1.609-.856-1.812-2.405-3.084-4.238-2.177-1.108.548-1.948 2.327-2.212 3.687-.224 1.157.243 2.724.95 3.724 1.225 1.735.784 3.114-.223 4.581-2.541 3.702-5.154 7.357-7.597 11.123-.445.685-.227 1.8-.315 2.717.874-.222 1.953-.201 2.574-.723.905-.76 1.523-1.883 2.187-2.901 2.286-3.508 4.538-7.038 6.804-10.559.244.113.488.227.732.34-.615 1.472-1.281 2.924-1.835 4.417-1.459 3.925-3.486 7.767-4.151 11.828-.947 5.784 3.703 8.765 8.997 6.126 1.899-.946 3.552-2.408 5.256-3.714 1.013-.777 1.908-1.708 3.061-2.757.161.815.246 1.258.337 1.699.48 2.329.92 4.805 3.633 5.528 2.731.729 4.608-1.054 6.352-2.791 1.299-1.295 2.477-2.711 3.838-4.216.253.538.419.765.468 1.014 1.312 6.698 4.631 8.132 10.292 4.243 2.196-1.508 4.097-3.441 6.212-5.248.229.398.405.611.484.855 2.162 6.73 6.592 8.278 12.403 4.143 5.191-3.694 8.222-8.899 9.676-15.032.531-2.241.846-4.532 1.234-6.66 1.999.171 3.734.32 5.686.488-.549 1.046-1.047 1.928-1.481 2.839-2.161 4.548-3.763 9.211-2.784 14.366.776 4.085 3.916 6.905 7.973 6.219 2.511-.425 4.877-2.083 7.138-3.463 1.385-.845 2.449-2.214 3.791-3.474.332.917.535 1.522.769 2.114 1.904 4.823 5.458 6.498 9.776 3.731 3.645-2.334 6.731-5.598 9.854-8.664 1.25-1.229 1.203-2.84-.392-3.564-3.46 3.078-6.577 6.035-9.922 8.71-.942.753-2.548.672-3.851.975-.28-1.226-.999-2.543-.762-3.66.814-3.832 1.903-7.61 3.037-11.365.201-.668 1.041-1.239 1.709-1.657 7.263-4.557 12.217-10.993 15.285-18.904.844-2.174.888-4.381-1.279-6.116-1.648-1.319-3.117-2.094-4.541-2.094-.954 0-1.887.348-2.84 1.113zm5.206 2.59c-.279 7.627-4.494 13.009-10.072 17.608 2.655-6.258 5.03-12.672 10.072-17.608zm-24.757 18.587c.558 3.627-3.203 7.354-7.825 8.689 2.813-3.123 5.319-5.906 7.825-8.689zm-66.635 18.378c1.058-5.724 3.46-10.839 7.383-15.147 2.058-2.259 3.554-2.532 6.376-1.679-3.234 7.468-7.453 14.057-13.781 20.215 0-1.645-.134-2.543.022-3.389z" fill="url(#b)"/><path d="m29.476 2.572c-5.71-.153-11.421-.449-17.119-.861-3.486-.252-6.767.125-9.624 2.235-2.902 2.144-3.568 5.74-1.636 8.05 1.859-5.149 5.619-6.272 13.415-3.786-.945 2.248-1.907 4.459-2.809 6.695-2.481 6.151-5.263 12.208-7.302 18.505-1.653 5.102-1.325 10.429 1.41 15.263.585 1.034 1.922 1.643 2.912 2.448-.931-6.799-.703-10.41 2.091-16.477 3.896-8.46 7.996-16.825 12.049-25.313 2.111-.125 4.843-.044 7.485-.495 4.821-.823 6.716-5.356 3.818-8.836-.592 2.643-2.801 2.622-4.69 2.572z" fill="url(#c)"/></g></svg>