<?xml version="1.0" encoding="UTF-8" standalone="no"?>
<svg
   width="756.3031"
   height="142.32751"
   version="1.1"
   id="svg690"
   sodipodi:docname="travelclub.svg"
   xmlns:inkscape="http://www.inkscape.org/namespaces/inkscape"
   xmlns:sodipodi="http://sodipodi.sourceforge.net/DTD/sodipodi-0.dtd"
   xmlns="http://www.w3.org/2000/svg"
   xmlns:svg="http://www.w3.org/2000/svg">
  <sodipodi:namedview
     id="namedview692"
     pagecolor="#ffffff"
     bordercolor="#000000"
     borderopacity="0.25"
     inkscape:showpageshadow="2"
     inkscape:pageopacity="0.0"
     inkscape:pagecheckerboard="0"
     inkscape:deskcolor="#d1d1d1"
     showgrid="false" />
  <defs
     id="defs36">
    <linearGradient
       x1="0"
       y1="0"
       x2="1"
       y2="0"
       gradientUnits="userSpaceOnUse"
       gradientTransform="matrix(321.60922,0,0,321.60922,434.69434,71.160936)"
       spreadMethod="pad"
       id="a">
      <stop
         style="stop-opacity:1;stop-color:#018359"
         offset="0"
         id="stop18" />
      <stop
         style="stop-opacity:1;stop-color:#fdb400"
         offset="1"
         id="stop20" />
    </linearGradient>
    <linearGradient
       x1="0"
       y1="0"
       x2="1"
       y2="0"
       gradientUnits="userSpaceOnUse"
       gradientTransform="matrix(347.78898,0,0,347.78898,47.00981,71.164946)"
       spreadMethod="pad"
       id="b">
      <stop
         style="stop-opacity:1;stop-color:#184c73"
         offset="0"
         id="stop23" />
      <stop
         style="stop-opacity:1;stop-color:#009aaa"
         offset="1"
         id="stop25" />
    </linearGradient>
    <linearGradient
       x1="0"
       y1="0"
       x2="1"
       y2="0"
       gradientUnits="userSpaceOnUse"
       gradientTransform="matrix(98.938932,0,0,98.938932,-2.2960938e-4,71.162366)"
       spreadMethod="pad"
       id="c">
      <stop
         style="stop-opacity:1;stop-color:#184c73"
         offset="0"
         id="stop28" />
      <stop
         style="stop-opacity:1;stop-color:#007392"
         offset="1"
         id="stop30" />
    </linearGradient>
  </defs>
  <path
     d="m 519.73281,12.131811 c -1.22224,-0.303471 -1.75679,-0.32296 -2.1577,-0.562395 -1.12201,-0.665407 -2.35259,-1.263995 -3.24073,-2.1771889 -8.32455,-8.56398402 -17.43701,-6.553842 -26.55782,-1.837526 -30.86765,15.9530649 -55.89141,61.6517749 -52.82886,96.2362389 2.93169,33.09217 29.23336,47.07964 58.04075,30.3331 7.22482,-4.19847 13.11604,-10.69106 19.40539,-15.95307 6.41185,24.70916 20.03182,28.83802 40.04693,11.49568 3.51357,-3.04306 6.89072,-6.23924 11.40658,-10.34583 0.50392,2.70617 0.69046,3.95625 0.96887,5.18962 3.50522,15.53266 15.31272,19.90653 27.9833,10.15929 3.27135,-2.51686 6.00815,-5.7715 8.83404,-8.82848 2.14656,-2.32475 4.04812,-4.87779 6.60396,-7.99324 2.86208,17.579 10.7356,24.78433 22.78532,21.0007 5.30376,-1.66213 10.08968,-5.21468 14.82549,-8.34404 3.16555,-2.09088 5.8244,-4.9474 8.96211,-7.6842 3.17948,13.76196 11.84369,19.08243 25.77266,16.45143 23.1835,-4.37944 41.1439,-21.88883 45.1781,-45.247694 0.9828,-5.67962 3.3187,-7.90136 8.3162,-9.36581 7.5032,-2.19668 14.8283,-5.0003 22.2257,-7.54778 l -0.7406,-3.28248 -28.9299,4.20125 c -6.6652,-16.0533 -19.177,-11.57085 -32.5993,-7.12181 3.4105,-6.80719 6.526,-11.96619 8.6503,-17.50661 3.4384,-8.962111 7.2136,-17.979908 9.0456,-27.329017 2.5781,-13.157798 -7.9849,-23.8906189 -21.2735,-22.4038939 5.3817,8.2131839 2.2662,16.0087479 -0.9494,23.7569819 -8.8842,21.421096 -19.3553,42.341049 -26.24045,64.388579 -5.28985,16.952564 -16.75768,27.070094 -29.51735,36.976034 -1.9656,1.52848 -5.17291,1.45888 -7.80949,2.12707 -0.34523,-2.69504 -1.38092,-5.5265 -0.87978,-8.0517 a 39.01123,39.01123 0 0 1 4.02864,-10.96112 c 5.2453,-9.60804 10.75231,-19.076864 16.35954,-28.481654 3.30198,-5.53764 6.71533,-11.27851 2.74794,-17.44536 -3.9479,-6.13344 -10.03679,-9.544 -17.56786,-9.75281 -7.04942,25.04325 -36.69483,68.876594 -49.69672,71.735894 1.65099,-5.5961 2.47509,-10.76066 4.6495,-15.27373 5.54041,-11.48732 12.25852,-22.437314 17.29223,-34.127874 1.89321,-4.40728 2.44168,-11.61539 0.0501,-15.13174 -3.72795,-5.48196 -10.52958,-8.78115 -16.43472,-8.38302 -2.82032,8.08233 -4.80819,14.98697 -7.62851,21.53246 -2.98459,6.92692 -6.98539,13.40837 -10.14259,20.27125 -6.62066,14.402314 -18.06343,24.077164 -31.30754,31.747444 -6.4035,3.71124 -10.98339,1.08302 -9.76673,-6.06384 2.0881,-12.24182 5.87173,-24.202444 9.23218,-36.202044 0.38142,-1.36422 2.51963,-2.35816 3.99801,-3.27692 20.49676,-12.7541 34.40349,-30.83703 42.95634,-53.204726 2.45003,-6.414636 1.88764,-12.213979 -4.10381,-16.793872 -6.2448,-4.7803519 -13.3499,-8.2465929 -19.92045,-2.60873 -7.16078,6.147359 -14.82828,13.110468 -18.70935,21.390471 -9.70826,20.711147 -18.82072,41.934567 -25.46922,63.773277 -5.64622,18.539534 -17.83793,28.467734 -34.55384,33.910714 -18.30287,5.95804 -32.46574,-5.01422 -32.56597,-24.12449 -0.0223,-4.13165 0.41484,-8.402504 1.49786,-12.375464 6.89629,-25.34672 21.49349,-45.609614 42.19071,-61.406768 4.88058,-3.725166 11.11424,-5.682409 17.3507,-8.758873 l -5.69355,24.475287 c 11.67943,-7.88744 21.63547,-16.100624 31.21845,-24.728643 1.55354,-1.397633 2.38878,-4.858307 1.91548,-7.004871 C 535.44364,8.6098861 530.67721,4.1636301 524.09553,1.1038721 L 519.7328,12.131811 m 54.80003,5.651783 C 572.75099,38.976392 561.6785,54.595366 545.51941,67.160136 553.78828,49.86234 559.46233,31.002644 574.53283,17.783594 M 704.1369,76.960276 c 2.6198,-0.68211 6.061,1.78741 9.1236,2.80362 -1.8125,2.24679 -3.199,5.17013 -5.5126,6.62066 -9.1542,5.74923 -18.6008,11.03351 -28.6236,16.888534 4.1038,-13.720194 11.8882,-22.885544 25.0126,-26.312814 M 669.48001,129.675 c 2.74794,-4.81655 3.97019,-9.35189 6.92689,-11.7184 10.2206,-8.16586 21.0481,-15.57443 32.1261,-22.590434 -3.469,18.194284 -20.8002,34.339454 -37.78899,34.339454 -0.4204,0 -0.84359,-0.008 -1.264,-0.0306"
     style="fill:url(#a);stroke:none;stroke-width:2.78413"
     id="path38" />
  <path
     d="m 369.18933,7.8983801 c -6.9464,5.5738289 -14.36333,12.2223309 -17.91031,20.0596569 -10.07298,22.270256 -19.41095,45.022169 -26.81395,68.291929 -4.91121,15.457494 -16.27881,22.849354 -28.56239,29.915474 -2.2106,1.27513 -8.48046,-0.8074 -10.29293,-3.25465 -4.56876,-6.17241 -0.7378,-15.1735 6.25594,-18.40309 12.94342,-5.983104 25.27155,-12.910024 30.68946,-27.315104 3.8421,-10.21498 2.36094,-13.3332 -8.84796,-20.70836 -9.74724,-6.414639 -12.16108,-6.23367 -20.39654,1.52848 -8.36074,7.87352 -20.21278,7.86796 -29.33916,0.40649 -2.9818,-2.43612 -6.72367,-3.94233 -10.67157,-6.19191 0.42319,9.0874 1.55911,16.61569 0.96609,24.00199 -1.509,18.71492 -9.24609,34.665204 -23.71243,46.904244 -1.92941,1.63428 -5.91906,3.09038 -7.62295,2.16883 -2.1939,-1.18882 -4.18176,-4.84438 -4.21796,-7.46425 -0.064,-4.84439 0.19768,-10.32355 2.38879,-14.44128 5.70189,-10.716124 11.80192,-21.384914 19.14367,-31.006864 5.06434,-6.63458 1.0886,-9.25166 -2.87879,-12.56478 -10.24838,-8.55563 -13.92622,-9.496664 -17.54002,-4.00358 -8.32176,12.63995 -16.16187,25.51934 -19.36362,40.72626 -0.90763,4.309834 -3.22681,8.817344 -6.17242,12.083124 -4.86109,5.39286 -10.65208,9.98111 -16.28159,14.62782 -1.97952,1.6315 -4.64393,2.43611 -6.99652,3.61659 -0.72109,-0.49558 -1.43661,-0.99394 -2.15491,-1.4923 1.55076,-5.58218 2.36094,-11.51794 4.79427,-16.6825 6.33389,-13.439004 13.30814,-26.580094 20.18494,-39.757384 2.58089,-4.9474 3.47459,-8.70319 -2.45003,-12.39773 -10.69942,-6.662425 -10.48504,-7.002089 -18.22213,4.39614 -18.80123,-10.99453 -26.80561,-9.80014 -40.43114,7.14408 -4.83882,6.02207 -9.22661,12.89052 -11.88824,20.08471 -5.68241,15.346134 -17.35069,25.160184 -29.51177,34.606744 -2.45282,1.90156 -6.53714,1.69275 -9.86974,2.46117 0.4733,-3.41613 0.1225,-7.23596 1.56746,-10.17321 5.1757,-10.51566 10.76345,-20.844784 16.59063,-31.020784 3.98966,-6.97146 2.85373,-12.60932 -3.55255,-16.92473 -6.54549,-4.41006 -12.9295,-8.48881 -9.92264,-18.105194 0.39256,-1.258427 -0.51506,-3.084816 -1.1749,-4.479665 -2.38322,-5.044844 -6.69583,-8.586257 -11.79914,-6.061051 -3.08482,1.525703 -5.42349,6.478671 -6.1585,10.265087 -0.62364,3.221243 0.67654,7.583973 2.64492,10.368103 3.41056,4.83046 2.18276,8.66978 -0.62086,12.7541 -7.07447,10.30685 -14.3494,20.48284 -21.15103,30.967874 -1.23894,1.90713 -0.632,5.01144 -0.877,7.56449 2.43333,-0.61808 5.4374,-0.55961 7.16635,-2.01293 2.51963,-2.11594 4.24023,-5.24252 6.08889,-8.07676 6.36452,-9.766734 12.63438,-19.594714 18.94322,-29.397634 l 2.03798,0.9466 c -1.71224,4.09824 -3.56647,8.1408 -5.10888,12.29751 -4.06204,10.92771 -9.70547,21.624334 -11.55692,32.930694 -2.63657,16.1034 10.30963,24.4029 25.04882,17.05558 5.28706,-2.63379 9.88923,-6.70419 14.63339,-10.34026 2.82032,-2.16327 5.31212,-4.7553 8.52222,-7.67585 0.44824,2.26907 0.68489,3.50244 0.93825,4.73024 1.33638,6.48424 2.5614,13.37774 10.11474,15.39067 7.60346,2.02963 12.82927,-2.93447 17.6848,-7.77051 3.61658,-3.60545 6.89629,-7.54777 10.68549,-11.73789 0.70438,1.49786 1.16655,2.12986 1.30297,2.82311 3.65278,18.6481 12.89331,22.64054 28.65427,11.81306 6.11395,-4.19847 11.40658,-9.58019 17.29501,-14.61111 0.63757,1.10808 1.12758,1.7011 1.34752,2.38043 6.01929,18.73719 18.35299,23.04703 34.53157,11.53465 14.45242,-10.28458 22.89111,-24.77597 26.93924,-41.851044 1.47837,-6.23924 2.35537,-12.61768 3.43561,-18.54231 l 15.83057,1.35866 c -1.52849,2.9122 -2.91499,5.3678 -4.1233,7.90414 -6.0165,12.66222 -10.47668,25.644624 -7.75102,39.996814 2.16049,11.37317 10.90266,19.22442 22.19787,17.31451 6.99095,-1.18326 13.5782,-5.79935 19.87312,-9.64144 3.85602,-2.35259 6.81834,-6.16407 10.55464,-9.67207 0.92433,2.55305 1.48951,4.23744 2.14099,5.88565 5.30099,13.42786 15.19579,18.09128 27.21766,10.38759 10.14815,-6.49816 18.73998,-15.58556 27.43482,-24.1217 3.48016,-3.4217 3.3493,-7.90693 -1.09138,-9.922644 -9.63309,8.569554 -18.31123,16.802224 -27.62414,24.249774 -2.62265,2.09645 -7.09396,1.87093 -10.72168,2.71453 -0.77956,-3.41335 -2.78135,-7.08005 -2.12151,-10.18992 2.26628,-10.66879 5.2982,-21.187234 8.4554,-31.641644 0.55961,-1.8598 2.89828,-3.44954 4.75808,-4.6133 20.22114,-12.68728 34.01372,-30.605943 42.55543,-52.631195 2.3498,-6.052699 2.4723,-12.197274 -3.56091,-17.027739 -4.58824,-3.6722679 -8.67813,-5.8299679 -12.64273,-5.8299679 -2.65606,0 -5.25365,0.968877 -7.90693,3.098736 m 14.49418,7.2108969 c -0.77677,21.23456 -12.51188,36.218749 -28.04176,49.022959 7.39187,-17.423083 14.00418,-35.280493 28.04176,-49.022959 M 314.7568,66.857906 c 1.55355,10.09803 -8.91756,20.47449 -21.78581,24.1913 l 21.78581,-24.1913 M 129.2363,118.02465 c 2.94561,-15.93636 9.63309,-30.177194 20.55523,-42.171224 5.72974,-6.28935 9.8948,-7.04942 17.75162,-4.67455 -9.00388,20.79188 -20.75012,39.136514 -38.3681,56.281184 0,-4.57989 -0.37307,-7.08004 0.0612,-9.43541"
     style="fill:url(#b);stroke:none;stroke-width:2.78413"
     id="path40" />
  <path
     d="M 82.06479,7.1607821 A 1051.7608,1051.7608 0 0 1 34.40327,4.7636461 C 24.69779,4.0620451 15.56306,5.1116621 7.6088004,10.986176 -0.47074961,16.955351 -2.3249796,26.967083 3.0539604,33.398423 8.2296604,19.062937 18.69799,15.936359 40.40307,22.857707 37.77206,29.116431 35.09373,35.272142 32.58244,41.497457 25.67502,58.622636 17.92957,75.486116 12.25273,93.017786 7.6505604,107.22242 8.5637604,122.05348 16.17835,135.51196 c 1.62872,2.87879 5.3511,4.57433 8.10739,6.81555 -2.59203,-18.9293 -1.95725,-28.98279 5.82161,-45.874114 C 40.95432,72.899656 52.36926,49.610412 63.65334,25.978716 69.53063,25.6307 77.13688,25.856215 84.49255,24.600572 97.91484,22.309233 103.19077,9.6887721 95.12236,-9.1845705e-7 93.47415,7.3584551 87.32401,7.2999881 82.06479,7.1607821"
     style="fill:url(#c);stroke:none;stroke-width:2.78413"
     id="path42" />
</svg>
