<svg height="540" viewBox="0 0 960 540" width="960" xmlns="http://www.w3.org/2000/svg"><path d="m0 0h960v540h-960z" fill="#00523a"/><path d="m0 202 11.5-4.3c11.5-4.4 34.5-13 57.3-17.7 22.9-4.7 45.5-5.3 68.4-16.3 22.8-11 45.8-32.4 68.6-28.9 22.9 3.5 45.5 31.9 68.4 43.4 22.8 11.5 45.8 6.1 68.6-16.7 22.9-22.8 45.5-63.2 68.4-74.5 22.8-11.3 45.8 6.3 68.8 30.3s46 54.4 68.8 51.5c22.9-2.8 45.5-38.8 68.4-38.5 22.8.4 45.8 37 68.6 58.9 22.9 21.8 45.5 28.8 68.4 20.1 22.8-8.6 45.8-33 68.6-34 22.9-1 45.5 21.4 68.4 13.7 22.8-7.7 45.8-45.3 57.3-64.2l11.5-18.8v435h-11.5c-11.5 0-34.5 0-57.3 0-22.9 0-45.5 0-68.4 0-22.8 0-45.8 0-68.6 0-22.9 0-45.5 0-68.4 0-22.8 0-45.8 0-68.6 0-22.9 0-45.5 0-68.4 0-22.8 0-45.8 0-68.8 0s-46 0-68.8 0c-22.9 0-45.5 0-68.4 0-22.8 0-45.8 0-68.6 0-22.9 0-45.5 0-68.4 0-22.8 0-45.8 0-68.6 0-22.9 0-45.5 0-68.4 0-22.8 0-45.8 0-57.3 0h-11.5z" fill="#00b884"/><path d="m0 121 11.5 1.8c11.5 1.9 34.5 5.5 57.3 13.7 22.9 8.2 45.5 20.8 68.4 25.5 22.8 4.7 45.8 1.3 68.6 9.3 22.9 8 45.5 27.4 68.4 40 22.8 12.7 45.8 18.7 68.6 3.9 22.9-14.9 45.5-50.5 68.4-61.2 22.8-10.7 45.8 3.7 68.8 9s46 1.7 68.8-7.2c22.9-8.8 45.5-22.8 68.4-30 22.8-7.1 45.8-7.5 68.6 12.5 22.9 20 45.5 60.4 68.4 70 22.8 9.7 45.8-11.3 68.6-14.1 22.9-2.9 45.5 12.5 68.4 22.5 22.8 10 45.8 14.6 57.3 17l11.5 2.3v305h-11.5c-11.5 0-34.5 0-57.3 0-22.9 0-45.5 0-68.4 0-22.8 0-45.8 0-68.6 0-22.9 0-45.5 0-68.4 0-22.8 0-45.8 0-68.6 0-22.9 0-45.5 0-68.4 0-22.8 0-45.8 0-68.8 0s-46 0-68.8 0c-22.9 0-45.5 0-68.4 0-22.8 0-45.8 0-68.6 0-22.9 0-45.5 0-68.4 0-22.8 0-45.8 0-68.6 0-22.9 0-45.5 0-68.4 0-22.8 0-45.8 0-57.3 0h-11.5z" fill="#00ac7b"/><path d="m0 203 11.5 4.8c11.5 4.9 34.5 14.5 57.3 23.4 22.9 8.8 45.5 16.8 68.4 22 22.8 5.1 45.8 7.5 68.6 16.6 22.9 9.2 45.5 25.2 68.4 17.2 22.8-8 45.8-40 68.6-52.3 22.9-12.4 45.5-5 68.4-2.9 22.8 2.2 45.8-.8 68.8-8.3s46-19.5 68.8-27.8c22.9-8.4 45.5-13 68.4-7.5 22.8 5.5 45.8 21.1 68.6 35.6 22.9 14.5 45.5 27.9 68.4 34 22.8 6.2 45.8 5.2 68.6 8.4 22.9 3.1 45.5 10.5 68.4 15.8 22.8 5.3 45.8 8.7 57.3 10.3l11.5 1.7v247h-11.5c-11.5 0-34.5 0-57.3 0-22.9 0-45.5 0-68.4 0-22.8 0-45.8 0-68.6 0-22.9 0-45.5 0-68.4 0-22.8 0-45.8 0-68.6 0-22.9 0-45.5 0-68.4 0-22.8 0-45.8 0-68.8 0s-46 0-68.8 0c-22.9 0-45.5 0-68.4 0-22.8 0-45.8 0-68.6 0-22.9 0-45.5 0-68.4 0-22.8 0-45.8 0-68.6 0-22.9 0-45.5 0-68.4 0-22.8 0-45.8 0-57.3 0h-11.5z" fill="#00a073"/><path d="m0 251 11.5 11c11.5 11 34.5 33 57.3 31.7 22.9-1.4 45.5-26 68.4-26.9 22.8-.8 45.8 22.2 68.6 19.9 22.9-2.4 45.5-30 68.4-35.5 22.8-5.5 45.8 11.1 68.6 18.6 22.9 7.5 45.5 5.9 68.4 12 22.8 6.2 45.8 20.2 68.8 22.5 23 2.4 46-7 68.8-13 22.9-6 45.5-8.6 68.4-17 22.8-8.3 45.8-22.3 68.6-30 22.9-7.6 45.5-9 68.4 0 22.8 9 45.8 28.4 68.6 32 22.9 3.7 45.5-8.3 68.4-18 22.8-9.6 45.8-17 57.3-20.6l11.5-3.7v307h-11.5c-11.5 0-34.5 0-57.3 0-22.9 0-45.5 0-68.4 0-22.8 0-45.8 0-68.6 0-22.9 0-45.5 0-68.4 0-22.8 0-45.8 0-68.6 0-22.9 0-45.5 0-68.4 0-22.8 0-45.8 0-68.8 0s-46 0-68.8 0c-22.9 0-45.5 0-68.4 0-22.8 0-45.8 0-68.6 0-22.9 0-45.5 0-68.4 0-22.8 0-45.8 0-68.6 0-22.9 0-45.5 0-68.4 0-22.8 0-45.8 0-57.3 0h-11.5z" fill="#00946a"/><path d="m0 334 11.5-1.8c11.5-1.9 34.5-5.5 57.3-2.9 22.9 2.7 45.5 11.7 68.4 23 22.8 11.4 45.8 25 68.6 20 22.9-5 45.5-28.6 68.4-30.5 22.8-1.8 45.8 18.2 68.6 19.7 22.9 1.5 45.5-15.5 68.4-13.7 22.8 1.9 45.8 22.5 68.8 19.5s46-29.6 68.8-34.5c22.9-4.8 45.5 12.2 68.4 17.2 22.8 5 45.8-2 68.6-11.3 22.9-9.4 45.5-21 68.4-27.9 22.8-6.8 45.8-8.8 68.6 5.7 22.9 14.5 45.5 45.5 68.4 55.8 22.8 10.4 45.8 0 57.3-5.1l11.5-5.2v179h-11.5c-11.5 0-34.5 0-57.3 0-22.9 0-45.5 0-68.4 0-22.8 0-45.8 0-68.6 0-22.9 0-45.5 0-68.4 0-22.8 0-45.8 0-68.6 0-22.9 0-45.5 0-68.4 0-22.8 0-45.8 0-68.8 0s-46 0-68.8 0c-22.9 0-45.5 0-68.4 0-22.8 0-45.8 0-68.6 0-22.9 0-45.5 0-68.4 0-22.8 0-45.8 0-68.6 0-22.9 0-45.5 0-68.4 0-22.8 0-45.8 0-57.3 0h-11.5z" fill="#008862"/><path d="m0 378 11.5 4.3c11.5 4.4 34.5 13 57.3 11.2 22.9-1.8 45.5-14.2 68.4-16.5 22.8-2.3 45.8 5.3 68.6 14.2 22.9 8.8 45.5 18.8 68.4 13.8 22.8-5 45.8-25 68.6-34.7 22.9-9.6 45.5-9 68.4-12.5 22.8-3.5 45.8-11.1 68.8.2s46 41.7 68.8 48.5c22.9 6.8 45.5-9.8 68.4-11.3 22.8-1.5 45.8 12.1 68.6 12 22.9-.2 45.5-14.2 68.4-12.2 22.8 2 45.8 20 68.6 18.2 22.9-1.9 45.5-23.5 68.4-38.2 22.8-14.7 45.8-22.3 57.3-26.2l11.5-3.8v196h-11.5c-11.5 0-34.5 0-57.3 0-22.9 0-45.5 0-68.4 0-22.8 0-45.8 0-68.6 0-22.9 0-45.5 0-68.4 0-22.8 0-45.8 0-68.6 0-22.9 0-45.5 0-68.4 0-22.8 0-45.8 0-68.8 0s-46 0-68.8 0c-22.9 0-45.5 0-68.4 0-22.8 0-45.8 0-68.6 0-22.9 0-45.5 0-68.4 0-22.8 0-45.8 0-68.6 0-22.9 0-45.5 0-68.4 0-22.8 0-45.8 0-57.3 0h-11.5z" fill="#007d59"/><path d="m0 454 11.5-3.5c11.5-3.5 34.5-10.5 57.3-20.7 22.9-10.1 45.5-23.5 68.4-24.8 22.8-1.3 45.8 9.3 68.6 16.8 22.9 7.5 45.5 11.9 68.4 17.7 22.8 5.8 45.8 13.2 68.6 10 22.9-3.2 45.5-16.8 68.4-18.7 22.8-1.8 45.8 8.2 68.8 13.4 23 5.1 46 5.5 68.8 1.6 22.9-3.8 45.5-11.8 68.4-16.5 22.8-4.6 45.8-6 68.6-10.8 22.9-4.8 45.5-13.2 68.4-18.2 22.8-5 45.8-6.6 68.6-6 22.9.7 45.5 3.7 68.4 4.2 22.8.5 45.8-1.5 57.3-2.5l11.5-1v146h-11.5c-11.5 0-34.5 0-57.3 0-22.9 0-45.5 0-68.4 0-22.8 0-45.8 0-68.6 0-22.9 0-45.5 0-68.4 0-22.8 0-45.8 0-68.6 0-22.9 0-45.5 0-68.4 0-22.8 0-45.8 0-68.8 0s-46 0-68.8 0c-22.9 0-45.5 0-68.4 0-22.8 0-45.8 0-68.6 0-22.9 0-45.5 0-68.4 0-22.8 0-45.8 0-68.6 0-22.9 0-45.5 0-68.4 0-22.8 0-45.8 0-57.3 0h-11.5z" fill="#007151"/><path d="m0 464 11.5-3.2c11.5-3.1 34.5-9.5 57.3-4.6 22.9 4.8 45.5 20.8 68.4 32.1 22.8 11.4 45.8 18 68.6 15 22.9-3 45.5-15.6 68.4-23 22.8-7.3 45.8-9.3 68.6-14.5 22.9-5.1 45.5-13.5 68.4-10 22.8 3.5 45.8 18.9 68.8 27 23 8.2 46 9.2 68.8 3.2 22.9-6 45.5-19 68.4-25.7 22.8-6.6 45.8-7 68.6-3.1 22.9 3.8 45.5 11.8 68.4 21.3 22.8 9.5 45.8 20.5 68.6 19.5 22.9-1 45.5-14 68.4-14 22.8 0 45.8 13 57.3 19.5l11.5 6.5v31h-11.5c-11.5 0-34.5 0-57.3 0-22.9 0-45.5 0-68.4 0-22.8 0-45.8 0-68.6 0-22.9 0-45.5 0-68.4 0-22.8 0-45.8 0-68.6 0-22.9 0-45.5 0-68.4 0-22.8 0-45.8 0-68.8 0s-46 0-68.8 0c-22.9 0-45.5 0-68.4 0-22.8 0-45.8 0-68.6 0-22.9 0-45.5 0-68.4 0-22.8 0-45.8 0-68.6 0-22.9 0-45.5 0-68.4 0-22.8 0-45.8 0-57.3 0h-11.5z" fill="#006649"/></svg>